<?xml version="1.0" encoding="UTF-8"?>
<svg xmlns="http://www.w3.org/2000/svg" width="59.41mm" height="49.36mm" viewBox="99.27 66.32 59.41 49.36">
  <path d="M 104.272 91.529 L 104.272 91.471 L 104.467 89.610 L 104.479 89.553 L 105.058 87.773 L 105.081 87.720 L 106.017 86.099 L 106.051 86.052 L 107.303 84.662 L 107.347 84.622 L 108.860 83.523 L 108.911 83.493 L 110.620 82.732 L 110.676 82.714 L 112.506 82.325 L 112.564 82.319 L 114.436 82.319 L 114.494 82.325 L 116.324 82.714 L 116.380 82.732 L 118.089 83.493 L 118.140 83.523 L 119.653 84.622 L 119.697 84.662 L 120.949 86.052 L 120.983 86.099 L 121.919 87.720 L 121.942 87.773 L 122.521 89.553 L 122.533 89.610 L 122.728 91.471 L 122.728 91.529 L 122.540 93.320 L 122.511 93.346 L 122.540 93.320 L 126.720 93.320 L 126.740 93.341 L 126.720 93.320 L 126.720 93.312 L 126.728 93.218 L 126.741 93.161 L 126.761 93.099 L 126.785 93.045 L 126.817 92.989 L 126.852 92.941 L 126.895 92.893 L 126.939 92.854 L 126.992 92.815 L 127.042 92.786 L 127.102 92.760 L 127.158 92.741 L 127.222 92.728 L 127.280 92.722 L 128.720 92.722 L 128.778 92.728 L 128.842 92.741 L 128.898 92.760 L 128.958 92.786 L 129.008 92.815 L 129.061 92.854 L 129.105 92.893 L 129.148 92.941 L 129.183 92.989 L 129.215 93.045 L 129.239 93.099 L 129.259 93.161 L 129.272 93.218 L 129.280 93.312 L 129.280 93.498 L 129.242 93.758 L 129.231 93.970 L 129.242 94.242 L 129.280 94.502 L 129.278 94.717 L 129.272 94.782 L 129.259 94.839 L 129.239 94.901 L 129.215 94.955 L 129.183 95.011 L 129.148 95.059 L 129.105 95.107 L 129.061 95.146 L 129.008 95.185 L 128.958 95.214 L 128.898 95.240 L 128.842 95.259 L 128.778 95.272 L 128.688 95.280 L 128.680 95.280 L 128.660 95.263 L 128.680 95.280 L 128.680 105.718 L 128.674 105.721 L 128.680 105.718 L 132.282 109.320 L 132.279 109.326 L 132.282 109.320 L 137.218 109.320 L 137.221 109.326 L 137.218 109.320 L 139.754 106.785 L 139.762 106.788 L 139.754 106.785 L 139.743 106.737 L 139.722 106.529 L 139.722 106.471 L 139.743 106.263 L 139.756 106.206 L 139.820 106.007 L 139.844 105.953 L 139.949 105.772 L 139.983 105.725 L 140.123 105.569 L 140.166 105.530 L 140.335 105.407 L 140.386 105.378 L 140.577 105.293 L 140.633 105.275 L 140.837 105.232 L 140.895 105.225 L 141.105 105.225 L 141.163 105.232 L 141.281 105.257 L 141.285 105.267 L 141.281 105.257 L 145.479 101.059 L 145.560 100.991 L 145.606 100.960 L 145.675 100.924 L 145.720 100.905 L 145.732 100.912 L 145.720 100.905 L 145.720 100.540 L 145.725 100.485 L 145.741 100.433 L 145.767 100.384 L 145.802 100.342 L 145.844 100.307 L 145.893 100.281 L 145.945 100.265 L 146.000 100.260 L 146.504 100.260 L 146.625 100.282 L 146.836 100.304 L 146.895 100.307 L 147.164 100.304 L 147.377 100.282 L 147.496 100.260 L 148.000 100.260 L 148.055 100.265 L 148.107 100.281 L 148.156 100.307 L 148.198 100.342 L 148.233 100.384 L 148.259 100.433 L 148.275 100.485 L 148.280 100.540 L 148.280 100.860 L 148.257 100.883 L 148.280 100.860 L 150.178 100.860 L 150.181 100.866 L 150.178 100.860 L 150.320 100.718 L 150.326 100.721 L 150.320 100.718 L 150.320 95.680 L 150.343 95.657 L 150.320 95.680 L 149.000 95.680 L 148.894 95.671 L 148.841 95.660 L 148.766 95.637 L 148.715 95.616 L 148.646 95.579 L 148.600 95.549 L 148.540 95.499 L 148.501 95.460 L 148.451 95.400 L 148.420 95.354 L 148.383 95.285 L 148.362 95.234 L 148.340 95.159 L 148.329 95.105 L 148.320 95.000 L 148.320 88.782 L 148.326 88.779 L 148.320 88.782 L 148.281 88.743 L 148.285 88.733 L 148.281 88.743 L 148.163 88.768 L 148.105 88.774 L 147.895 88.774 L 147.837 88.768 L 147.633 88.725 L 147.577 88.707 L 147.386 88.622 L 147.335 88.593 L 147.166 88.470 L 147.123 88.430 L 146.983 88.275 L 146.948 88.228 L 146.844 88.047 L 146.820 87.993 L 146.756 87.794 L 146.743 87.737 L 146.722 87.529 L 146.722 87.471 L 146.743 87.263 L 146.756 87.206 L 146.820 87.007 L 146.844 86.953 L 146.948 86.772 L 146.983 86.725 L 147.123 86.570 L 147.166 86.530 L 147.335 86.407 L 147.386 86.378 L 147.577 86.293 L 147.633 86.275 L 147.837 86.232 L 147.895 86.226 L 148.105 86.226 L 148.163 86.232 L 148.367 86.275 L 148.423 86.293 L 148.614 86.378 L 148.665 86.407 L 148.834 86.530 L 148.877 86.570 L 149.017 86.725 L 149.051 86.772 L 149.156 86.953 L 149.180 87.007 L 149.244 87.206 L 149.257 87.263 L 149.278 87.471 L 149.278 87.529 L 149.257 87.737 L 149.246 87.785 L 149.239 87.787 L 149.246 87.785 L 149.481 88.019 L 149.549 88.100 L 149.579 88.146 L 149.616 88.215 L 149.637 88.266 L 149.660 88.341 L 149.671 88.394 L 149.680 88.500 L 149.680 94.320 L 149.657 94.343 L 149.680 94.320 L 151.000 94.320 L 151.105 94.329 L 151.159 94.340 L 151.234 94.362 L 151.285 94.383 L 151.354 94.420 L 151.400 94.451 L 151.460 94.501 L 151.499 94.540 L 151.549 94.600 L 151.579 94.646 L 151.616 94.715 L 151.637 94.766 L 151.660 94.841 L 151.671 94.894 L 151.680 95.000 L 151.680 101.000 L 151.671 101.105 L 151.660 101.159 L 151.637 101.234 L 151.616 101.285 L 151.579 101.354 L 151.549 101.400 L 151.481 101.481 L 150.920 102.039 L 150.860 102.089 L 150.814 102.119 L 150.745 102.156 L 150.694 102.177 L 150.619 102.200 L 150.565 102.211 L 150.460 102.220 L 148.280 102.220 L 148.257 102.197 L 148.280 102.220 L 148.280 102.540 L 148.275 102.595 L 148.259 102.647 L 148.233 102.696 L 148.198 102.738 L 148.156 102.773 L 148.107 102.799 L 148.055 102.815 L 148.000 102.820 L 146.000 102.820 L 145.945 102.815 L 145.893 102.799 L 145.844 102.773 L 145.802 102.738 L 145.767 102.696 L 145.767 102.662 L 145.767 102.695 L 142.246 106.215 L 142.238 106.212 L 142.246 106.215 L 142.257 106.263 L 142.278 106.471 L 142.278 106.529 L 142.257 106.737 L 142.244 106.794 L 142.180 106.993 L 142.156 107.047 L 142.051 107.228 L 142.017 107.275 L 141.877 107.430 L 141.834 107.470 L 141.665 107.593 L 141.614 107.622 L 141.423 107.707 L 141.367 107.725 L 141.163 107.768 L 141.105 107.774 L 140.895 107.774 L 140.837 107.768 L 140.718 107.743 L 140.715 107.733 L 140.718 107.743 L 137.981 110.481 L 137.900 110.549 L 137.854 110.579 L 137.785 110.616 L 137.734 110.637 L 137.659 110.660 L 137.605 110.671 L 137.500 110.680 L 132.000 110.680 L 131.894 110.671 L 131.841 110.660 L 131.766 110.637 L 131.715 110.616 L 131.646 110.579 L 131.600 110.549 L 131.519 110.481 L 127.519 106.481 L 127.451 106.400 L 127.421 106.354 L 127.384 106.285 L 127.363 106.234 L 127.340 106.159 L 127.329 106.105 L 127.320 106.000 L 127.320 95.278 L 127.342 95.258 L 127.320 95.278 L 127.278 95.278 L 127.222 95.272 L 127.158 95.259 L 127.102 95.240 L 127.042 95.214 L 126.992 95.185 L 126.939 95.146 L 126.895 95.107 L 126.852 95.059 L 126.817 95.011 L 126.785 94.955 L 126.761 94.901 L 126.741 94.839 L 126.728 94.782 L 126.722 94.717 L 126.720 94.680 L 126.740 94.659 L 126.720 94.680 L 122.120 94.680 L 122.109 94.665 L 122.120 94.680 L 121.942 95.227 L 121.919 95.280 L 120.983 96.901 L 120.949 96.948 L 119.697 98.338 L 119.653 98.378 L 118.140 99.477 L 118.089 99.507 L 116.380 100.268 L 116.324 100.286 L 114.494 100.675 L 114.436 100.681 L 112.564 100.681 L 112.506 100.675 L 110.676 100.286 L 110.620 100.268 L 108.911 99.507 L 108.860 99.477 L 107.347 98.378 L 107.303 98.338 L 106.051 96.948 L 106.017 96.901 L 105.081 95.280 L 105.058 95.227 L 104.479 93.447 L 104.467 93.390 L 104.272 91.529 L 104.351 91.521 L 104.351 91.479 L 104.547 89.618 L 104.555 89.577 L 105.134 87.798 L 105.151 87.760 L 106.086 86.139 L 106.111 86.105 L 107.363 84.715 L 107.394 84.687 L 108.907 83.587 L 108.944 83.566 L 110.653 82.805 L 110.693 82.792 L 112.523 82.403 L 112.564 82.399 L 114.436 82.399 L 114.477 82.403 L 116.307 82.792 L 116.347 82.805 L 118.056 83.566 L 118.093 83.587 L 119.606 84.687 L 119.637 84.715 L 120.889 86.105 L 120.914 86.139 L 121.849 87.760 L 121.866 87.798 L 122.445 89.577 L 122.453 89.618 L 122.649 91.479 L 122.649 91.521 L 122.453 93.382 L 122.449 93.400 L 122.420 93.426 L 122.449 93.400 L 126.800 93.400 L 126.820 93.421 L 126.800 93.400 L 126.801 93.292 L 126.808 93.227 L 126.817 93.186 L 126.837 93.124 L 126.854 93.085 L 126.886 93.029 L 126.911 92.995 L 126.955 92.946 L 126.986 92.918 L 127.039 92.880 L 127.075 92.859 L 127.135 92.833 L 127.174 92.820 L 127.238 92.806 L 127.280 92.802 L 128.720 92.802 L 128.762 92.806 L 128.826 92.820 L 128.865 92.833 L 128.925 92.859 L 128.961 92.880 L 129.014 92.918 L 129.045 92.946 L 129.089 92.995 L 129.114 93.029 L 129.146 93.085 L 129.163 93.124 L 129.183 93.186 L 129.192 93.227 L 129.200 93.312 L 129.200 94.687 L 129.192 94.773 L 129.183 94.814 L 129.163 94.876 L 129.146 94.915 L 129.114 94.971 L 129.089 95.005 L 129.045 95.054 L 129.014 95.082 L 128.961 95.120 L 128.925 95.141 L 128.865 95.167 L 128.826 95.180 L 128.762 95.194 L 128.698 95.200 L 128.600 95.200 L 128.579 95.181 L 128.600 95.200 L 128.600 105.751 L 128.594 105.754 L 128.600 105.751 L 132.249 109.400 L 132.246 109.406 L 132.249 109.400 L 137.251 109.400 L 137.254 109.406 L 137.251 109.400 L 139.844 106.808 L 139.853 106.811 L 139.844 106.808 L 139.823 106.729 L 139.801 106.521 L 139.801 106.479 L 139.823 106.271 L 139.832 106.230 L 139.896 106.031 L 139.913 105.993 L 140.018 105.812 L 140.042 105.778 L 140.182 105.623 L 140.213 105.595 L 140.382 105.472 L 140.419 105.451 L 140.610 105.366 L 140.649 105.353 L 140.854 105.310 L 140.895 105.305 L 141.105 105.305 L 141.146 105.310 L 141.307 105.344 L 141.310 105.354 L 141.307 105.344 L 145.536 101.116 L 145.611 101.053 L 145.643 101.031 L 145.713 100.994 L 145.800 100.964 L 145.813 100.972 L 145.800 100.964 L 145.800 100.540 L 145.804 100.501 L 145.815 100.463 L 145.834 100.429 L 145.859 100.399 L 145.889 100.374 L 145.923 100.355 L 145.961 100.344 L 146.000 100.340 L 148.000 100.340 L 148.039 100.344 L 148.077 100.355 L 148.111 100.374 L 148.141 100.399 L 148.166 100.429 L 148.185 100.463 L 148.196 100.501 L 148.200 100.540 L 148.200 100.940 L 148.177 100.963 L 148.200 100.940 L 150.211 100.940 L 150.214 100.946 L 150.211 100.940 L 150.400 100.751 L 150.406 100.754 L 150.400 100.751 L 150.400 95.600 L 150.423 95.577 L 150.400 95.600 L 149.000 95.600 L 148.902 95.591 L 148.864 95.584 L 148.789 95.561 L 148.753 95.546 L 148.683 95.509 L 148.651 95.487 L 148.590 95.437 L 148.563 95.410 L 148.513 95.349 L 148.491 95.316 L 148.454 95.247 L 148.439 95.211 L 148.416 95.136 L 148.409 95.098 L 148.400 95.000 L 148.400 88.748 L 148.406 88.746 L 148.400 88.748 L 148.307 88.656 L 148.310 88.646 L 148.307 88.656 L 148.146 88.690 L 148.105 88.694 L 147.895 88.694 L 147.854 88.690 L 147.649 88.647 L 147.610 88.634 L 147.419 88.549 L 147.382 88.528 L 147.213 88.405 L 147.182 88.377 L 147.042 88.222 L 147.018 88.188 L 146.913 88.007 L 146.896 87.969 L 146.832 87.770 L 146.823 87.729 L 146.801 87.521 L 146.801 87.479 L 146.823 87.271 L 146.832 87.230 L 146.896 87.031 L 146.913 86.993 L 147.018 86.812 L 147.042 86.778 L 147.182 86.623 L 147.213 86.595 L 147.382 86.472 L 147.419 86.451 L 147.610 86.366 L 147.649 86.353 L 147.854 86.310 L 147.895 86.305 L 148.105 86.305 L 148.146 86.310 L 148.351 86.353 L 148.390 86.366 L 148.581 86.451 L 148.618 86.472 L 148.787 86.595 L 148.818 86.623 L 148.958 86.778 L 148.982 86.812 L 149.087 86.993 L 149.104 87.031 L 149.168 87.230 L 149.177 87.271 L 149.199 87.479 L 149.199 87.521 L 149.177 87.729 L 149.156 87.808 L 149.147 87.810 L 149.156 87.808 L 149.424 88.076 L 149.487 88.151 L 149.509 88.183 L 149.546 88.253 L 149.561 88.289 L 149.584 88.364 L 149.591 88.402 L 149.600 88.500 L 149.600 94.400 L 149.577 94.423 L 149.600 94.400 L 151.000 94.400 L 151.098 94.409 L 151.136 94.416 L 151.211 94.439 L 151.247 94.454 L 151.316 94.491 L 151.349 94.513 L 151.410 94.563 L 151.437 94.590 L 151.487 94.651 L 151.509 94.683 L 151.546 94.753 L 151.561 94.789 L 151.584 94.864 L 151.591 94.902 L 151.600 95.000 L 151.600 101.000 L 151.591 101.098 L 151.584 101.136 L 151.561 101.211 L 151.546 101.247 L 151.509 101.316 L 151.487 101.349 L 151.424 101.424 L 150.884 101.964 L 150.809 102.027 L 150.776 102.049 L 150.707 102.086 L 150.671 102.101 L 150.596 102.124 L 150.558 102.131 L 150.460 102.140 L 148.200 102.140 L 148.177 102.117 L 148.200 102.140 L 148.200 102.540 L 148.196 102.579 L 148.185 102.617 L 148.166 102.651 L 148.141 102.681 L 148.111 102.706 L 148.077 102.725 L 148.039 102.736 L 148.000 102.740 L 146.000 102.740 L 145.961 102.736 L 145.923 102.725 L 145.889 102.706 L 145.859 102.681 L 145.834 102.651 L 145.815 102.617 L 145.804 102.579 L 145.801 102.548 L 145.826 102.463 L 145.801 102.548 L 142.156 106.192 L 142.147 106.189 L 142.156 106.192 L 142.177 106.271 L 142.199 106.479 L 142.199 106.521 L 142.177 106.729 L 142.168 106.770 L 142.104 106.969 L 142.087 107.007 L 141.982 107.188 L 141.958 107.222 L 141.818 107.377 L 141.787 107.405 L 141.618 107.528 L 141.581 107.549 L 141.390 107.634 L 141.351 107.647 L 141.146 107.690 L 141.105 107.695 L 140.895 107.695 L 140.854 107.690 L 140.693 107.656 L 140.690 107.646 L 140.693 107.656 L 137.924 110.424 L 137.849 110.487 L 137.816 110.509 L 137.747 110.546 L 137.711 110.561 L 137.636 110.584 L 137.598 110.591 L 137.500 110.600 L 132.000 110.600 L 131.902 110.591 L 131.864 110.584 L 131.789 110.561 L 131.753 110.546 L 131.683 110.509 L 131.651 110.487 L 131.576 110.424 L 127.576 106.424 L 127.513 106.349 L 127.491 106.316 L 127.454 106.247 L 127.439 106.211 L 127.416 106.136 L 127.409 106.098 L 127.400 106.000 L 127.400 95.199 L 127.423 95.177 L 127.400 95.199 L 127.279 95.198 L 127.238 95.194 L 127.174 95.180 L 127.135 95.167 L 127.075 95.141 L 127.039 95.120 L 126.986 95.082 L 126.955 95.054 L 126.911 95.005 L 126.886 94.971 L 126.854 94.915 L 126.837 94.876 L 126.817 94.814 L 126.808 94.773 L 126.801 94.708 L 126.800 94.600 L 126.821 94.578 L 126.800 94.600 L 122.062 94.600 L 122.051 94.585 L 122.062 94.600 L 121.866 95.202 L 121.849 95.240 L 120.914 96.861 L 120.889 96.894 L 119.637 98.285 L 119.606 98.313 L 118.093 99.413 L 118.056 99.434 L 116.347 100.195 L 116.307 100.208 L 114.477 100.597 L 114.436 100.601 L 112.564 100.601 L 112.523 100.597 L 110.693 100.208 L 110.653 100.195 L 108.944 99.434 L 108.907 99.413 L 107.394 98.313 L 107.363 98.285 L 106.111 96.894 L 106.086 96.861 L 105.151 95.240 L 105.134 95.202 L 104.555 93.423 L 104.547 93.382 L 104.351 91.521 L 104.431 91.513 L 104.431 91.487 L 104.626 89.627 L 104.631 89.602 L 105.210 87.823 L 105.220 87.800 L 106.155 86.179 L 106.170 86.159 L 107.422 84.769 L 107.441 84.752 L 108.954 83.652 L 108.976 83.639 L 110.685 82.878 L 110.709 82.871 L 112.540 82.482 L 112.564 82.479 L 114.436 82.479 L 114.460 82.482 L 116.291 82.871 L 116.314 82.878 L 118.024 83.639 L 118.046 83.652 L 119.559 84.752 L 119.578 84.769 L 120.830 86.159 L 120.845 86.179 L 121.780 87.800 L 121.790 87.823 L 122.369 89.602 L 122.374 89.627 L 122.569 91.487 L 122.569 91.513 L 122.374 93.373 L 122.342 93.480 L 126.880 93.480 L 126.880 93.312 L 126.887 93.235 L 126.913 93.148 L 126.956 93.069 L 126.970 93.049 L 127.033 92.983 L 127.107 92.932 L 127.191 92.898 L 127.280 92.882 L 128.720 92.882 L 128.745 92.884 L 128.833 92.906 L 128.893 92.932 L 128.967 92.983 L 129.029 93.049 L 129.077 93.125 L 129.107 93.210 L 129.120 93.312 L 129.120 94.687 L 129.107 94.790 L 129.077 94.875 L 129.029 94.951 L 128.967 95.017 L 128.893 95.068 L 128.833 95.094 L 128.745 95.116 L 128.688 95.120 L 128.520 95.120 L 128.520 105.785 L 132.215 109.480 L 137.285 109.480 L 139.935 106.829 L 139.902 106.720 L 139.881 106.513 L 139.902 106.280 L 139.908 106.255 L 139.983 106.033 L 140.102 105.832 L 140.242 105.677 L 140.260 105.660 L 140.451 105.524 L 140.666 105.432 L 140.895 105.385 L 141.129 105.388 L 141.333 105.431 L 145.592 101.172 L 145.662 101.115 L 145.750 101.065 L 145.847 101.033 L 145.880 101.027 L 145.880 100.540 L 145.889 100.494 L 145.900 100.473 L 145.933 100.440 L 145.954 100.429 L 146.000 100.420 L 148.023 100.422 L 148.046 100.429 L 148.085 100.455 L 148.111 100.494 L 148.118 100.517 L 148.120 101.020 L 150.245 101.020 L 150.480 100.785 L 150.480 95.520 L 149.000 95.520 L 148.910 95.512 L 148.812 95.484 L 148.702 95.425 L 148.624 95.359 L 148.575 95.298 L 148.525 95.210 L 148.493 95.113 L 148.480 95.000 L 148.480 88.715 L 148.333 88.569 L 148.105 88.615 L 147.871 88.612 L 147.642 88.561 L 147.429 88.463 L 147.242 88.323 L 147.087 88.148 L 146.972 87.944 L 146.903 87.720 L 146.881 87.513 L 146.903 87.280 L 146.972 87.056 L 146.983 87.033 L 147.102 86.832 L 147.260 86.660 L 147.429 86.537 L 147.642 86.439 L 147.871 86.388 L 147.895 86.385 L 148.129 86.388 L 148.358 86.439 L 148.549 86.524 L 148.571 86.537 L 148.758 86.677 L 148.913 86.852 L 149.017 87.033 L 149.092 87.255 L 149.119 87.487 L 149.097 87.720 L 149.065 87.829 L 149.368 88.132 L 149.425 88.202 L 149.484 88.312 L 149.512 88.410 L 149.520 88.500 L 149.520 94.480 L 151.000 94.480 L 151.113 94.493 L 151.188 94.516 L 151.279 94.562 L 151.376 94.641 L 151.425 94.702 L 151.475 94.790 L 151.512 94.910 L 151.520 95.000 L 151.520 101.000 L 151.507 101.113 L 151.475 101.210 L 151.425 101.298 L 151.368 101.368 L 150.828 101.908 L 150.739 101.978 L 150.648 102.024 L 150.573 102.047 L 150.460 102.060 L 148.120 102.060 L 148.118 102.563 L 148.100 102.607 L 148.085 102.625 L 148.067 102.640 L 148.023 102.658 L 145.977 102.658 L 145.933 102.640 L 145.915 102.625 L 145.889 102.586 L 145.880 102.540 L 145.880 102.355 L 142.065 106.171 L 142.097 106.280 L 142.119 106.487 L 142.119 106.513 L 142.092 106.745 L 142.028 106.944 L 141.913 107.148 L 141.758 107.323 L 141.571 107.463 L 141.358 107.561 L 141.334 107.568 L 141.105 107.615 L 140.895 107.615 L 140.667 107.569 L 137.868 110.368 L 137.798 110.425 L 137.710 110.475 L 137.590 110.512 L 137.500 110.520 L 132.000 110.520 L 131.887 110.507 L 131.790 110.475 L 131.702 110.425 L 131.632 110.368 L 127.632 106.368 L 127.575 106.298 L 127.516 106.188 L 127.488 106.090 L 127.480 106.000 L 127.480 95.119 L 127.279 95.118 L 127.191 95.102 L 127.107 95.068 L 127.033 95.017 L 127.014 95.000 L 126.956 94.931 L 126.913 94.852 L 126.893 94.790 L 126.880 94.687 L 126.880 94.520 L 122.004 94.520 L 121.780 95.200 L 120.845 96.821 L 120.830 96.841 L 119.578 98.231 L 119.559 98.248 L 118.046 99.348 L 118.024 99.361 L 116.314 100.122 L 116.291 100.129 L 114.460 100.518 L 114.436 100.521 L 112.564 100.521 L 112.540 100.518 L 110.709 100.129 L 110.685 100.122 L 108.976 99.361 L 108.954 99.348 L 107.441 98.248 L 107.422 98.231 L 106.170 96.841 L 106.155 96.821 L 105.220 95.200 L 105.210 95.177 L 104.631 93.398 L 104.626 93.373 L 104.431 91.513" fill="none" stroke="#000000" stroke-width="0.2"/>
  <path d="M 110.170 81.450 L 110.170 75.750 L 110.175 75.695 L 110.191 75.643 L 110.217 75.594 L 110.252 75.552 L 110.294 75.517 L 110.343 75.491 L 110.395 75.475 L 110.450 75.470 L 116.550 75.470 L 116.605 75.475 L 116.657 75.491 L 116.706 75.517 L 116.748 75.552 L 116.783 75.594 L 116.809 75.643 L 116.825 75.695 L 116.830 75.750 L 116.830 77.920 L 116.807 77.943 L 116.830 77.920 L 120.220 77.920 L 120.325 77.929 L 120.379 77.940 L 120.454 77.963 L 120.505 77.984 L 120.574 78.020 L 120.620 78.051 L 120.701 78.119 L 127.320 84.738 L 127.369 84.858 L 127.320 84.738 L 127.320 77.380 L 127.329 77.275 L 127.340 77.221 L 127.363 77.146 L 127.384 77.095 L 127.421 77.026 L 127.451 76.980 L 127.519 76.899 L 128.634 75.785 L 128.642 75.788 L 128.634 75.785 L 128.623 75.737 L 128.602 75.529 L 128.602 75.471 L 128.623 75.263 L 128.636 75.206 L 128.700 75.007 L 128.724 74.953 L 128.829 74.772 L 128.863 74.725 L 129.003 74.570 L 129.046 74.530 L 129.200 74.419 L 129.208 74.423 L 129.200 74.419 L 129.200 72.620 L 129.209 72.515 L 129.220 72.461 L 129.242 72.386 L 129.263 72.335 L 129.300 72.266 L 129.331 72.220 L 129.399 72.139 L 130.019 71.519 L 130.100 71.451 L 130.146 71.420 L 130.215 71.383 L 130.266 71.362 L 130.341 71.340 L 130.395 71.329 L 130.500 71.320 L 152.500 71.320 L 152.605 71.329 L 152.659 71.340 L 152.734 71.362 L 152.785 71.383 L 152.854 71.420 L 152.900 71.451 L 152.960 71.501 L 153.499 72.040 L 153.549 72.100 L 153.579 72.146 L 153.616 72.215 L 153.637 72.266 L 153.660 72.341 L 153.671 72.394 L 153.680 72.500 L 153.680 83.000 L 153.671 83.105 L 153.660 83.159 L 153.637 83.234 L 153.616 83.285 L 153.579 83.354 L 153.549 83.400 L 153.499 83.460 L 153.460 83.499 L 153.400 83.549 L 153.354 83.579 L 153.285 83.616 L 153.234 83.637 L 153.159 83.660 L 153.105 83.671 L 153.027 83.679 L 146.282 83.680 L 146.279 83.674 L 146.282 83.680 L 145.680 84.282 L 145.674 84.279 L 145.680 84.282 L 145.679 93.027 L 145.671 93.105 L 145.660 93.159 L 145.637 93.234 L 145.616 93.285 L 145.579 93.354 L 145.549 93.400 L 145.499 93.460 L 145.460 93.499 L 145.400 93.549 L 145.354 93.579 L 145.285 93.616 L 145.234 93.637 L 145.159 93.660 L 145.105 93.671 L 145.000 93.680 L 136.902 93.680 L 136.899 93.674 L 136.902 93.680 L 136.866 93.715 L 136.858 93.712 L 136.866 93.715 L 136.877 93.763 L 136.898 93.971 L 136.898 94.029 L 136.877 94.237 L 136.864 94.294 L 136.800 94.493 L 136.776 94.547 L 136.671 94.728 L 136.637 94.775 L 136.497 94.930 L 136.454 94.970 L 136.285 95.093 L 136.234 95.122 L 136.043 95.207 L 135.987 95.225 L 135.783 95.268 L 135.725 95.274 L 135.515 95.274 L 135.457 95.268 L 135.253 95.225 L 135.197 95.207 L 135.006 95.122 L 134.955 95.093 L 134.786 94.970 L 134.743 94.930 L 134.603 94.775 L 134.569 94.728 L 134.464 94.547 L 134.440 94.493 L 134.390 94.339 L 134.390 93.661 L 134.440 93.507 L 134.464 93.453 L 134.569 93.272 L 134.603 93.225 L 134.743 93.070 L 134.786 93.030 L 134.955 92.907 L 135.006 92.878 L 135.197 92.793 L 135.253 92.775 L 135.457 92.732 L 135.515 92.725 L 135.725 92.725 L 135.783 92.732 L 135.901 92.757 L 135.904 92.766 L 135.901 92.757 L 136.139 92.519 L 136.220 92.451 L 136.266 92.420 L 136.335 92.384 L 136.386 92.362 L 136.461 92.340 L 136.515 92.329 L 136.620 92.320 L 144.320 92.320 L 144.343 92.343 L 144.320 92.320 L 144.320 87.817 L 144.328 87.743 L 144.339 87.531 L 144.339 87.466 L 144.328 87.257 L 144.320 87.183 L 144.320 84.000 L 144.329 83.894 L 144.340 83.841 L 144.363 83.766 L 144.384 83.715 L 144.420 83.646 L 144.451 83.600 L 144.519 83.519 L 145.540 82.501 L 145.600 82.451 L 145.646 82.420 L 145.715 82.383 L 145.766 82.362 L 145.841 82.340 L 145.894 82.329 L 146.000 82.320 L 152.320 82.320 L 152.343 82.343 L 152.320 82.320 L 152.320 72.782 L 152.326 72.779 L 152.320 72.782 L 152.218 72.680 L 152.221 72.674 L 152.218 72.680 L 130.782 72.680 L 130.779 72.674 L 130.782 72.680 L 130.560 72.902 L 130.554 72.899 L 130.560 72.902 L 130.560 74.419 L 130.552 74.423 L 130.560 74.419 L 130.714 74.530 L 130.757 74.570 L 130.897 74.725 L 130.931 74.772 L 131.036 74.953 L 131.060 75.007 L 131.124 75.206 L 131.137 75.263 L 131.158 75.471 L 131.158 75.529 L 131.137 75.737 L 131.124 75.794 L 131.060 75.993 L 131.036 76.047 L 130.931 76.228 L 130.897 76.275 L 130.757 76.430 L 130.714 76.470 L 130.545 76.593 L 130.494 76.622 L 130.303 76.707 L 130.247 76.725 L 130.043 76.768 L 129.985 76.774 L 129.775 76.774 L 129.717 76.768 L 129.598 76.743 L 129.595 76.733 L 129.598 76.743 L 128.680 77.662 L 128.674 77.659 L 128.680 77.662 L 128.680 85.299 L 128.672 85.303 L 128.680 85.299 L 128.834 85.410 L 128.877 85.450 L 129.017 85.605 L 129.051 85.652 L 129.156 85.833 L 129.180 85.887 L 129.230 86.041 L 129.230 86.719 L 129.180 86.873 L 129.156 86.927 L 129.051 87.108 L 129.017 87.155 L 128.877 87.310 L 128.834 87.350 L 128.665 87.473 L 128.614 87.502 L 128.423 87.587 L 128.367 87.605 L 128.163 87.648 L 128.105 87.654 L 127.895 87.654 L 127.837 87.648 L 127.633 87.605 L 127.577 87.587 L 127.386 87.502 L 127.335 87.473 L 127.166 87.350 L 127.123 87.310 L 126.983 87.155 L 126.949 87.108 L 126.844 86.927 L 126.820 86.873 L 126.756 86.674 L 126.743 86.617 L 126.722 86.409 L 126.722 86.351 L 126.743 86.143 L 126.754 86.095 L 126.762 86.092 L 126.754 86.095 L 119.938 79.280 L 119.941 79.274 L 119.938 79.280 L 116.830 79.280 L 116.807 79.257 L 116.830 79.280 L 116.830 81.450 L 116.825 81.505 L 116.809 81.557 L 116.783 81.606 L 116.748 81.648 L 116.706 81.683 L 116.657 81.709 L 116.605 81.725 L 116.550 81.730 L 110.450 81.730 L 110.395 81.725 L 110.343 81.709 L 110.294 81.683 L 110.252 81.648 L 110.217 81.606 L 110.191 81.557 L 110.175 81.505 L 110.170 81.450 L 110.250 81.450 L 110.250 75.750 L 110.254 75.711 L 110.265 75.673 L 110.284 75.639 L 110.309 75.609 L 110.339 75.584 L 110.373 75.565 L 110.411 75.554 L 110.450 75.550 L 116.550 75.550 L 116.589 75.554 L 116.627 75.565 L 116.661 75.584 L 116.691 75.609 L 116.716 75.639 L 116.735 75.673 L 116.746 75.711 L 116.750 75.750 L 116.750 78.000 L 116.727 78.023 L 116.750 78.000 L 120.220 78.000 L 120.318 78.009 L 120.356 78.016 L 120.431 78.039 L 120.467 78.054 L 120.536 78.091 L 120.569 78.113 L 120.644 78.176 L 127.400 84.931 L 127.449 85.051 L 127.400 84.931 L 127.400 77.380 L 127.409 77.282 L 127.416 77.244 L 127.439 77.169 L 127.454 77.133 L 127.491 77.063 L 127.513 77.031 L 127.576 76.956 L 128.724 75.807 L 128.736 75.811 L 128.724 75.807 L 128.703 75.729 L 128.681 75.521 L 128.681 75.479 L 128.703 75.271 L 128.712 75.230 L 128.776 75.031 L 128.793 74.993 L 128.898 74.812 L 128.922 74.778 L 129.062 74.623 L 129.093 74.595 L 129.262 74.472 L 129.280 74.462 L 129.289 74.467 L 129.280 74.462 L 129.280 72.620 L 129.289 72.522 L 129.296 72.484 L 129.319 72.409 L 129.334 72.373 L 129.371 72.303 L 129.393 72.271 L 129.456 72.196 L 130.076 71.576 L 130.151 71.513 L 130.183 71.491 L 130.253 71.454 L 130.289 71.439 L 130.364 71.416 L 130.402 71.409 L 130.500 71.400 L 152.500 71.400 L 152.598 71.409 L 152.636 71.416 L 152.711 71.439 L 152.747 71.454 L 152.816 71.491 L 152.849 71.513 L 152.910 71.563 L 153.437 72.090 L 153.487 72.151 L 153.509 72.183 L 153.546 72.253 L 153.561 72.289 L 153.584 72.364 L 153.591 72.402 L 153.599 72.480 L 153.600 83.000 L 153.591 83.098 L 153.584 83.136 L 153.561 83.211 L 153.546 83.247 L 153.509 83.316 L 153.487 83.349 L 153.437 83.410 L 153.410 83.437 L 153.349 83.487 L 153.316 83.509 L 153.247 83.546 L 153.211 83.561 L 153.136 83.584 L 153.098 83.591 L 153.020 83.599 L 146.249 83.600 L 146.246 83.594 L 146.249 83.600 L 145.600 84.249 L 145.594 84.246 L 145.600 84.249 L 145.600 93.000 L 145.591 93.098 L 145.584 93.136 L 145.561 93.211 L 145.546 93.247 L 145.509 93.316 L 145.487 93.349 L 145.437 93.410 L 145.410 93.437 L 145.349 93.487 L 145.316 93.509 L 145.247 93.546 L 145.211 93.561 L 145.136 93.584 L 145.098 93.591 L 145.000 93.600 L 136.869 93.600 L 136.866 93.594 L 136.869 93.600 L 136.776 93.692 L 136.767 93.689 L 136.776 93.692 L 136.797 93.771 L 136.819 93.979 L 136.819 94.021 L 136.797 94.229 L 136.788 94.270 L 136.724 94.469 L 136.707 94.507 L 136.602 94.688 L 136.578 94.722 L 136.438 94.877 L 136.407 94.905 L 136.238 95.028 L 136.201 95.049 L 136.010 95.134 L 135.971 95.147 L 135.766 95.190 L 135.725 95.195 L 135.515 95.195 L 135.474 95.190 L 135.269 95.147 L 135.230 95.134 L 135.039 95.049 L 135.002 95.028 L 134.833 94.905 L 134.802 94.877 L 134.662 94.722 L 134.638 94.688 L 134.533 94.507 L 134.516 94.469 L 134.452 94.270 L 134.443 94.229 L 134.421 94.021 L 134.421 93.979 L 134.443 93.771 L 134.452 93.730 L 134.516 93.531 L 134.533 93.493 L 134.638 93.312 L 134.662 93.278 L 134.802 93.123 L 134.833 93.095 L 135.002 92.972 L 135.039 92.951 L 135.230 92.866 L 135.269 92.853 L 135.474 92.810 L 135.515 92.805 L 135.725 92.805 L 135.766 92.810 L 135.927 92.844 L 135.930 92.854 L 135.927 92.844 L 136.196 92.576 L 136.271 92.513 L 136.303 92.491 L 136.373 92.454 L 136.409 92.439 L 136.484 92.416 L 136.522 92.409 L 136.620 92.400 L 144.400 92.400 L 144.423 92.423 L 144.400 92.400 L 144.400 84.000 L 144.409 83.902 L 144.416 83.864 L 144.439 83.789 L 144.454 83.753 L 144.491 83.683 L 144.513 83.651 L 144.576 83.576 L 145.590 82.563 L 145.651 82.513 L 145.683 82.491 L 145.753 82.454 L 145.789 82.439 L 145.864 82.416 L 145.902 82.409 L 146.000 82.400 L 152.400 82.400 L 152.423 82.423 L 152.400 82.400 L 152.400 72.749 L 152.406 72.746 L 152.400 72.749 L 152.251 72.600 L 152.254 72.594 L 152.251 72.600 L 130.749 72.600 L 130.746 72.594 L 130.749 72.600 L 130.480 72.869 L 130.474 72.866 L 130.480 72.869 L 130.480 74.462 L 130.471 74.467 L 130.480 74.462 L 130.498 74.472 L 130.667 74.595 L 130.698 74.623 L 130.838 74.778 L 130.862 74.812 L 130.967 74.993 L 130.984 75.031 L 131.048 75.230 L 131.057 75.271 L 131.079 75.479 L 131.079 75.521 L 131.057 75.729 L 131.048 75.770 L 130.984 75.969 L 130.967 76.007 L 130.862 76.188 L 130.838 76.222 L 130.698 76.377 L 130.667 76.405 L 130.498 76.528 L 130.461 76.549 L 130.270 76.634 L 130.231 76.647 L 130.026 76.690 L 129.985 76.694 L 129.775 76.694 L 129.734 76.690 L 129.573 76.656 L 129.570 76.646 L 129.573 76.656 L 128.600 77.629 L 128.594 77.626 L 128.600 77.629 L 128.600 85.342 L 128.591 85.346 L 128.600 85.342 L 128.618 85.352 L 128.787 85.475 L 128.818 85.503 L 128.958 85.658 L 128.982 85.692 L 129.087 85.873 L 129.104 85.911 L 129.168 86.110 L 129.177 86.151 L 129.199 86.359 L 129.199 86.401 L 129.177 86.609 L 129.168 86.650 L 129.104 86.849 L 129.087 86.887 L 128.982 87.068 L 128.958 87.102 L 128.818 87.257 L 128.787 87.285 L 128.618 87.408 L 128.581 87.429 L 128.390 87.514 L 128.351 87.527 L 128.146 87.570 L 128.105 87.575 L 127.895 87.575 L 127.854 87.570 L 127.649 87.527 L 127.610 87.514 L 127.419 87.429 L 127.382 87.408 L 127.213 87.285 L 127.182 87.257 L 127.042 87.102 L 127.018 87.068 L 126.913 86.887 L 126.896 86.849 L 126.832 86.650 L 126.823 86.609 L 126.801 86.401 L 126.801 86.359 L 126.823 86.151 L 126.844 86.072 L 126.853 86.069 L 126.844 86.072 L 119.971 79.200 L 119.974 79.194 L 119.971 79.200 L 116.750 79.200 L 116.727 79.177 L 116.750 79.200 L 116.750 81.450 L 116.746 81.489 L 116.735 81.527 L 116.716 81.561 L 116.691 81.591 L 116.661 81.616 L 116.627 81.635 L 116.589 81.646 L 116.550 81.650 L 110.450 81.650 L 110.411 81.646 L 110.373 81.635 L 110.339 81.616 L 110.309 81.591 L 110.284 81.561 L 110.265 81.527 L 110.254 81.489 L 110.250 81.450 L 110.330 81.450 L 110.339 81.496 L 110.365 81.535 L 110.404 81.561 L 110.450 81.570 L 116.573 81.568 L 116.617 81.550 L 116.635 81.535 L 116.661 81.496 L 116.670 81.450 L 116.670 79.120 L 120.005 79.120 L 126.935 86.051 L 126.902 86.160 L 126.881 86.367 L 126.902 86.600 L 126.908 86.625 L 126.972 86.824 L 127.087 87.028 L 127.242 87.203 L 127.429 87.343 L 127.642 87.441 L 127.666 87.448 L 127.895 87.495 L 128.129 87.492 L 128.358 87.441 L 128.571 87.343 L 128.740 87.220 L 128.898 87.048 L 128.913 87.028 L 129.028 86.824 L 129.092 86.625 L 129.119 86.393 L 129.119 86.367 L 129.092 86.135 L 129.017 85.913 L 128.913 85.732 L 128.898 85.712 L 128.740 85.540 L 128.571 85.417 L 128.520 85.391 L 128.520 77.595 L 129.547 76.569 L 129.775 76.615 L 130.009 76.612 L 130.238 76.561 L 130.429 76.476 L 130.620 76.340 L 130.778 76.168 L 130.793 76.148 L 130.908 75.944 L 130.977 75.720 L 130.999 75.513 L 130.977 75.280 L 130.908 75.056 L 130.793 74.852 L 130.638 74.677 L 130.451 74.537 L 130.400 74.512 L 130.400 72.835 L 130.715 72.520 L 152.285 72.520 L 152.480 72.715 L 152.480 82.480 L 146.000 82.480 L 145.910 82.488 L 145.790 82.525 L 145.702 82.575 L 145.632 82.632 L 144.632 83.632 L 144.575 83.702 L 144.516 83.812 L 144.488 83.910 L 144.480 84.000 L 144.480 92.480 L 136.620 92.480 L 136.530 92.488 L 136.432 92.516 L 136.322 92.575 L 136.252 92.632 L 135.953 92.931 L 135.749 92.888 L 135.515 92.885 L 135.286 92.932 L 135.071 93.024 L 134.880 93.160 L 134.722 93.332 L 134.603 93.533 L 134.592 93.556 L 134.522 93.780 L 134.501 94.013 L 134.528 94.245 L 134.603 94.467 L 134.722 94.668 L 134.880 94.840 L 135.049 94.963 L 135.262 95.061 L 135.491 95.112 L 135.725 95.115 L 135.954 95.068 L 135.978 95.061 L 136.191 94.963 L 136.378 94.823 L 136.533 94.648 L 136.648 94.444 L 136.717 94.220 L 136.739 93.987 L 136.717 93.780 L 136.685 93.671 L 136.835 93.520 L 145.000 93.520 L 145.113 93.507 L 145.210 93.475 L 145.298 93.425 L 145.376 93.359 L 145.425 93.298 L 145.484 93.188 L 145.512 93.090 L 145.520 93.000 L 145.520 84.215 L 146.215 83.520 L 153.000 83.520 L 153.090 83.512 L 153.188 83.484 L 153.298 83.425 L 153.359 83.376 L 153.425 83.298 L 153.484 83.188 L 153.512 83.090 L 153.520 83.000 L 153.519 72.488 L 153.512 72.410 L 153.484 72.312 L 153.438 72.221 L 153.376 72.141 L 152.868 71.632 L 152.779 71.562 L 152.688 71.516 L 152.590 71.488 L 152.500 71.480 L 130.500 71.480 L 130.387 71.493 L 130.312 71.516 L 130.221 71.562 L 130.132 71.632 L 129.512 72.252 L 129.442 72.341 L 129.396 72.432 L 129.368 72.530 L 129.360 72.620 L 129.360 74.512 L 129.309 74.537 L 129.122 74.677 L 128.967 74.852 L 128.852 75.056 L 128.788 75.255 L 128.761 75.487 L 128.782 75.720 L 128.815 75.829 L 127.632 77.012 L 127.562 77.101 L 127.516 77.192 L 127.493 77.267 L 127.480 77.380 L 127.480 85.125 L 120.588 78.232 L 120.499 78.162 L 120.408 78.116 L 120.333 78.093 L 120.220 78.080 L 116.670 78.080 L 116.670 75.750 L 116.661 75.704 L 116.635 75.665 L 116.596 75.639 L 116.573 75.632 L 110.450 75.630 L 110.404 75.639 L 110.365 75.665 L 110.339 75.704 L 110.330 75.750 L 110.330 81.450" fill="none" stroke="#000000" stroke-width="0.2"/>
  <path d="M 129.310 86.408 L 129.310 86.041 L 129.360 85.887 L 129.384 85.833 L 129.489 85.652 L 129.523 85.605 L 129.663 85.450 L 129.706 85.410 L 129.860 85.299 L 129.868 85.303 L 129.860 85.299 L 129.860 79.960 L 129.869 79.855 L 129.880 79.801 L 129.903 79.726 L 129.924 79.675 L 129.960 79.606 L 129.991 79.560 L 130.041 79.500 L 131.019 78.519 L 131.100 78.451 L 131.146 78.420 L 131.215 78.384 L 131.266 78.363 L 131.341 78.340 L 131.394 78.329 L 131.500 78.320 L 133.718 78.320 L 133.721 78.326 L 133.718 78.320 L 136.254 75.785 L 136.262 75.788 L 136.254 75.785 L 136.243 75.737 L 136.222 75.529 L 136.222 75.471 L 136.243 75.263 L 136.256 75.206 L 136.320 75.007 L 136.344 74.953 L 136.449 74.772 L 136.483 74.725 L 136.623 74.570 L 136.666 74.530 L 136.835 74.407 L 136.886 74.378 L 137.077 74.293 L 137.133 74.275 L 137.337 74.232 L 137.395 74.226 L 137.605 74.226 L 137.663 74.232 L 137.867 74.275 L 137.923 74.293 L 138.114 74.378 L 138.165 74.407 L 138.334 74.530 L 138.377 74.570 L 138.517 74.725 L 138.552 74.774 L 138.579 74.820 L 138.573 74.830 L 138.579 74.820 L 141.921 74.820 L 141.927 74.830 L 141.921 74.820 L 141.948 74.774 L 141.983 74.725 L 142.123 74.570 L 142.166 74.530 L 142.335 74.407 L 142.386 74.378 L 142.577 74.293 L 142.633 74.275 L 142.837 74.232 L 142.895 74.226 L 143.105 74.226 L 143.163 74.232 L 143.367 74.275 L 143.423 74.293 L 143.614 74.378 L 143.665 74.407 L 143.834 74.530 L 143.877 74.570 L 144.017 74.725 L 144.051 74.772 L 144.156 74.953 L 144.180 75.007 L 144.244 75.206 L 144.257 75.263 L 144.278 75.471 L 144.278 75.529 L 144.257 75.737 L 144.244 75.794 L 144.180 75.993 L 144.156 76.047 L 144.051 76.228 L 144.017 76.275 L 143.877 76.430 L 143.834 76.470 L 143.665 76.593 L 143.614 76.622 L 143.423 76.707 L 143.367 76.725 L 143.163 76.768 L 143.105 76.774 L 142.895 76.774 L 142.837 76.768 L 142.633 76.725 L 142.577 76.707 L 142.386 76.622 L 142.335 76.593 L 142.166 76.470 L 142.123 76.430 L 141.983 76.275 L 141.948 76.226 L 141.921 76.180 L 141.927 76.170 L 141.921 76.180 L 138.579 76.180 L 138.573 76.170 L 138.579 76.180 L 138.552 76.226 L 138.517 76.275 L 138.377 76.430 L 138.334 76.470 L 138.165 76.593 L 138.114 76.622 L 137.923 76.707 L 137.867 76.725 L 137.663 76.768 L 137.605 76.774 L 137.395 76.774 L 137.337 76.768 L 137.218 76.743 L 137.215 76.733 L 137.218 76.743 L 134.481 79.481 L 134.400 79.549 L 134.354 79.579 L 134.285 79.616 L 134.234 79.637 L 134.159 79.660 L 134.105 79.671 L 134.000 79.680 L 131.782 79.680 L 131.779 79.674 L 131.782 79.680 L 131.220 80.242 L 131.214 80.239 L 131.220 80.242 L 131.220 85.299 L 131.212 85.303 L 131.220 85.299 L 131.374 85.410 L 131.417 85.450 L 131.557 85.605 L 131.591 85.652 L 131.696 85.833 L 131.720 85.887 L 131.770 86.041 L 131.770 86.719 L 131.720 86.873 L 131.696 86.927 L 131.591 87.108 L 131.557 87.155 L 131.417 87.310 L 131.374 87.350 L 131.205 87.473 L 131.154 87.502 L 130.963 87.587 L 130.907 87.605 L 130.703 87.648 L 130.645 87.654 L 130.435 87.654 L 130.377 87.648 L 130.173 87.605 L 130.117 87.587 L 129.926 87.502 L 129.875 87.473 L 129.706 87.350 L 129.663 87.310 L 129.523 87.155 L 129.489 87.108 L 129.384 86.927 L 129.360 86.873 L 129.310 86.719 L 129.310 86.408 L 129.341 86.401 L 129.341 86.359 L 129.363 86.151 L 129.372 86.110 L 129.436 85.911 L 129.453 85.873 L 129.558 85.692 L 129.582 85.658 L 129.722 85.503 L 129.753 85.475 L 129.922 85.352 L 129.940 85.342 L 129.949 85.347 L 129.940 85.342 L 129.940 79.960 L 129.949 79.862 L 129.956 79.824 L 129.979 79.749 L 129.994 79.713 L 130.031 79.643 L 130.053 79.611 L 130.116 79.536 L 131.076 78.576 L 131.151 78.513 L 131.183 78.491 L 131.253 78.454 L 131.289 78.439 L 131.364 78.416 L 131.402 78.409 L 131.500 78.400 L 133.751 78.400 L 133.754 78.406 L 133.751 78.400 L 136.344 75.807 L 136.356 75.811 L 136.344 75.807 L 136.323 75.729 L 136.301 75.521 L 136.301 75.479 L 136.323 75.271 L 136.332 75.230 L 136.396 75.031 L 136.413 74.993 L 136.518 74.812 L 136.542 74.778 L 136.682 74.623 L 136.713 74.595 L 136.882 74.472 L 136.919 74.451 L 137.110 74.366 L 137.149 74.353 L 137.354 74.310 L 137.395 74.305 L 137.605 74.305 L 137.646 74.310 L 137.851 74.353 L 137.890 74.366 L 138.081 74.451 L 138.118 74.472 L 138.287 74.595 L 138.318 74.623 L 138.458 74.778 L 138.483 74.813 L 138.532 74.900 L 138.526 74.910 L 138.532 74.900 L 141.968 74.900 L 141.974 74.910 L 141.968 74.900 L 142.017 74.813 L 142.042 74.778 L 142.182 74.623 L 142.213 74.595 L 142.382 74.472 L 142.419 74.451 L 142.610 74.366 L 142.649 74.353 L 142.854 74.310 L 142.895 74.305 L 143.105 74.305 L 143.146 74.310 L 143.351 74.353 L 143.390 74.366 L 143.581 74.451 L 143.618 74.472 L 143.787 74.595 L 143.818 74.623 L 143.958 74.778 L 143.982 74.812 L 144.087 74.993 L 144.104 75.031 L 144.168 75.230 L 144.177 75.271 L 144.199 75.479 L 144.199 75.521 L 144.177 75.729 L 144.168 75.770 L 144.104 75.969 L 144.087 76.007 L 143.982 76.188 L 143.958 76.222 L 143.818 76.377 L 143.787 76.405 L 143.618 76.528 L 143.581 76.549 L 143.390 76.634 L 143.351 76.647 L 143.146 76.690 L 143.105 76.694 L 142.895 76.694 L 142.854 76.690 L 142.649 76.647 L 142.610 76.634 L 142.419 76.549 L 142.382 76.528 L 142.213 76.405 L 142.182 76.377 L 142.042 76.222 L 142.017 76.187 L 141.968 76.100 L 141.974 76.090 L 141.968 76.100 L 138.532 76.100 L 138.526 76.090 L 138.532 76.100 L 138.483 76.187 L 138.458 76.222 L 138.318 76.377 L 138.287 76.405 L 138.118 76.528 L 138.081 76.549 L 137.890 76.634 L 137.851 76.647 L 137.646 76.690 L 137.605 76.694 L 137.395 76.694 L 137.354 76.690 L 137.193 76.656 L 137.190 76.646 L 137.193 76.656 L 134.424 79.424 L 134.349 79.487 L 134.316 79.509 L 134.247 79.546 L 134.211 79.561 L 134.136 79.584 L 134.098 79.591 L 134.000 79.600 L 131.749 79.600 L 131.746 79.594 L 131.749 79.600 L 131.140 80.209 L 131.134 80.206 L 131.140 80.209 L 131.140 85.342 L 131.131 85.346 L 131.140 85.342 L 131.158 85.352 L 131.327 85.475 L 131.358 85.503 L 131.498 85.658 L 131.522 85.692 L 131.627 85.873 L 131.644 85.911 L 131.708 86.110 L 131.717 86.151 L 131.739 86.359 L 131.739 86.401 L 131.717 86.609 L 131.708 86.650 L 131.644 86.849 L 131.627 86.887 L 131.522 87.068 L 131.498 87.102 L 131.358 87.257 L 131.327 87.285 L 131.158 87.408 L 131.121 87.429 L 130.930 87.514 L 130.891 87.527 L 130.686 87.570 L 130.645 87.575 L 130.435 87.575 L 130.394 87.570 L 130.189 87.527 L 130.150 87.514 L 129.959 87.429 L 129.922 87.408 L 129.753 87.285 L 129.722 87.257 L 129.582 87.102 L 129.558 87.068 L 129.453 86.887 L 129.436 86.849 L 129.372 86.650 L 129.363 86.609 L 129.341 86.401 L 129.421 86.393 L 129.442 86.160 L 129.448 86.135 L 129.523 85.913 L 129.627 85.732 L 129.782 85.557 L 129.800 85.540 L 129.969 85.417 L 130.020 85.392 L 130.020 79.960 L 130.033 79.847 L 130.056 79.772 L 130.102 79.681 L 130.172 79.592 L 131.132 78.632 L 131.202 78.575 L 131.312 78.516 L 131.410 78.488 L 131.500 78.480 L 133.785 78.480 L 136.435 75.829 L 136.403 75.720 L 136.381 75.487 L 136.408 75.255 L 136.483 75.033 L 136.602 74.832 L 136.760 74.660 L 136.951 74.524 L 137.166 74.432 L 137.371 74.388 L 137.605 74.385 L 137.629 74.388 L 137.858 74.439 L 138.049 74.524 L 138.240 74.660 L 138.398 74.832 L 138.486 74.980 L 142.014 74.980 L 142.102 74.832 L 142.242 74.677 L 142.260 74.660 L 142.451 74.524 L 142.642 74.439 L 142.870 74.388 L 142.895 74.385 L 143.129 74.388 L 143.358 74.439 L 143.571 74.537 L 143.740 74.660 L 143.898 74.832 L 143.913 74.852 L 144.017 75.033 L 144.092 75.255 L 144.119 75.487 L 144.097 75.720 L 144.028 75.944 L 143.913 76.148 L 143.758 76.323 L 143.571 76.463 L 143.358 76.561 L 143.129 76.612 L 143.105 76.615 L 142.870 76.612 L 142.642 76.561 L 142.451 76.476 L 142.260 76.340 L 142.242 76.323 L 142.102 76.168 L 142.014 76.020 L 138.486 76.020 L 138.398 76.168 L 138.240 76.340 L 138.049 76.476 L 137.858 76.561 L 137.629 76.612 L 137.605 76.615 L 137.371 76.612 L 137.167 76.569 L 134.368 79.368 L 134.298 79.425 L 134.210 79.475 L 134.113 79.507 L 134.000 79.520 L 131.715 79.520 L 131.060 80.175 L 131.060 85.391 L 131.111 85.417 L 131.298 85.557 L 131.453 85.732 L 131.568 85.936 L 131.632 86.135 L 131.659 86.367 L 131.637 86.600 L 131.568 86.824 L 131.453 87.028 L 131.438 87.048 L 131.280 87.220 L 131.111 87.343 L 130.898 87.441 L 130.669 87.492 L 130.645 87.495 L 130.411 87.492 L 130.182 87.441 L 129.991 87.356 L 129.969 87.343 L 129.782 87.203 L 129.627 87.028 L 129.512 86.824 L 129.442 86.600 L 129.421 86.393" fill="none" stroke="#000000" stroke-width="0.2"/>
  <path d="M 135.128 85.291 L 135.274 85.195 L 135.408 85.122 L 135.457 85.112 L 135.515 85.105 L 135.725 85.105 L 135.783 85.112 L 135.987 85.155 L 136.043 85.173 L 136.234 85.258 L 136.285 85.287 L 136.454 85.410 L 136.497 85.450 L 136.637 85.605 L 136.671 85.652 L 136.776 85.833 L 136.800 85.887 L 136.864 86.086 L 136.877 86.143 L 136.898 86.351 L 136.898 86.409 L 136.877 86.617 L 136.866 86.665 L 136.858 86.668 L 136.866 86.665 L 137.022 86.820 L 137.019 86.826 L 137.022 86.820 L 141.921 86.820 L 141.927 86.830 L 141.921 86.820 L 141.948 86.774 L 141.983 86.725 L 142.123 86.570 L 142.166 86.530 L 142.335 86.407 L 142.386 86.378 L 142.577 86.293 L 142.633 86.275 L 142.837 86.232 L 142.895 86.226 L 143.105 86.226 L 143.163 86.232 L 143.367 86.275 L 143.423 86.293 L 143.614 86.378 L 143.665 86.407 L 143.834 86.530 L 143.877 86.570 L 144.017 86.725 L 144.051 86.772 L 144.156 86.953 L 144.180 87.007 L 144.241 87.195 L 144.248 87.263 L 144.259 87.470 L 144.248 87.737 L 144.241 87.805 L 144.180 87.993 L 144.156 88.047 L 144.051 88.228 L 144.017 88.275 L 143.877 88.430 L 143.834 88.470 L 143.665 88.593 L 143.614 88.622 L 143.423 88.707 L 143.367 88.725 L 143.163 88.768 L 143.105 88.774 L 142.895 88.774 L 142.837 88.768 L 142.633 88.725 L 142.577 88.707 L 142.386 88.622 L 142.335 88.593 L 142.166 88.470 L 142.123 88.430 L 141.983 88.275 L 141.948 88.226 L 141.921 88.180 L 141.927 88.170 L 141.921 88.180 L 136.740 88.180 L 136.635 88.171 L 136.581 88.160 L 136.506 88.137 L 136.455 88.116 L 136.386 88.079 L 136.340 88.049 L 136.259 87.981 L 135.902 87.623 L 135.904 87.614 L 135.902 87.623 L 135.783 87.648 L 135.725 87.654 L 135.515 87.654 L 135.457 87.648 L 135.253 87.605 L 135.197 87.587 L 135.006 87.502 L 134.955 87.473 L 134.786 87.350 L 134.743 87.310 L 134.603 87.155 L 134.569 87.108 L 134.464 86.927 L 134.440 86.873 L 134.390 86.719 L 134.390 86.408 L 134.421 86.401 L 134.501 86.393 L 134.528 86.625 L 134.603 86.847 L 134.722 87.048 L 134.880 87.220 L 135.071 87.356 L 135.286 87.448 L 135.515 87.495 L 135.725 87.495 L 135.953 87.449 L 136.381 87.876 L 136.461 87.938 L 136.552 87.984 L 136.627 88.007 L 136.740 88.020 L 142.014 88.020 L 142.102 88.168 L 142.242 88.323 L 142.260 88.340 L 142.451 88.476 L 142.666 88.568 L 142.870 88.612 L 143.105 88.615 L 143.129 88.612 L 143.358 88.561 L 143.571 88.463 L 143.740 88.340 L 143.898 88.168 L 144.017 87.967 L 144.092 87.745 L 144.097 87.720 L 144.119 87.487 L 144.092 87.255 L 144.017 87.033 L 143.913 86.852 L 143.758 86.677 L 143.571 86.537 L 143.358 86.439 L 143.334 86.432 L 143.129 86.388 L 142.895 86.385 L 142.870 86.388 L 142.642 86.439 L 142.451 86.524 L 142.260 86.660 L 142.102 86.832 L 142.014 86.980 L 136.955 86.980 L 136.685 86.709 L 136.717 86.600 L 136.739 86.393 L 136.717 86.160 L 136.648 85.936 L 136.533 85.732 L 136.378 85.557 L 136.191 85.417 L 135.978 85.319 L 135.749 85.268 L 135.725 85.265 L 135.491 85.268 L 135.262 85.319 L 135.049 85.417 L 134.862 85.557 L 134.707 85.732 L 134.592 85.936 L 134.522 86.160 L 134.501 86.393 L 134.421 86.401 L 134.390 86.408 L 134.390 86.111 L 134.535 85.879 L 134.689 85.682 L 134.860 85.505 L 135.053 85.343 L 135.007 85.278 L 135.184 85.156 L 135.370 85.052 L 139.242 81.180 L 139.239 81.174 L 139.242 81.180 L 150.500 81.180 L 150.605 81.171 L 150.659 81.160 L 150.734 81.137 L 150.785 81.116 L 150.854 81.079 L 150.900 81.049 L 150.960 80.999 L 150.999 80.960 L 151.049 80.900 L 151.079 80.854 L 151.116 80.785 L 151.137 80.734 L 151.160 80.659 L 151.171 80.605 L 151.179 80.527 L 151.178 77.763 L 151.199 77.734 L 151.236 77.665 L 151.257 77.614 L 151.280 77.539 L 151.291 77.485 L 151.299 77.407 L 151.300 76.581 L 151.292 76.577 L 151.300 76.581 L 151.454 76.470 L 151.497 76.430 L 151.637 76.275 L 151.671 76.228 L 151.776 76.047 L 151.800 75.993 L 151.864 75.794 L 151.877 75.737 L 151.898 75.529 L 151.898 75.471 L 151.877 75.263 L 151.864 75.206 L 151.800 75.007 L 151.776 74.953 L 151.671 74.772 L 151.637 74.725 L 151.497 74.570 L 151.454 74.530 L 151.285 74.407 L 151.234 74.378 L 151.043 74.293 L 150.987 74.275 L 150.783 74.232 L 150.725 74.226 L 150.515 74.226 L 150.457 74.232 L 150.253 74.275 L 150.197 74.293 L 150.006 74.378 L 149.955 74.407 L 149.786 74.530 L 149.743 74.570 L 149.603 74.725 L 149.569 74.772 L 149.464 74.953 L 149.440 75.007 L 149.376 75.206 L 149.363 75.263 L 149.342 75.471 L 149.342 75.529 L 149.363 75.737 L 149.376 75.794 L 149.440 75.993 L 149.464 76.047 L 149.569 76.228 L 149.603 76.275 L 149.743 76.430 L 149.786 76.470 L 149.940 76.581 L 149.948 76.577 L 149.940 76.581 L 149.942 77.117 L 149.920 77.146 L 149.883 77.215 L 149.862 77.266 L 149.840 77.341 L 149.829 77.395 L 149.820 77.500 L 149.820 79.820 L 149.843 79.843 L 149.820 79.820 L 138.960 79.820 L 138.855 79.829 L 138.801 79.840 L 138.726 79.862 L 138.675 79.884 L 138.606 79.920 L 138.560 79.951 L 138.479 80.019 L 133.361 85.137 L 133.365 85.147 L 133.361 85.137 L 133.243 85.112 L 133.185 85.105 L 132.975 85.105 L 132.917 85.112 L 132.713 85.155 L 132.657 85.173 L 132.466 85.258 L 132.415 85.287 L 132.246 85.410 L 132.203 85.450 L 132.063 85.605 L 132.029 85.652 L 131.924 85.833 L 131.900 85.887 L 131.850 86.041 L 131.850 86.719 L 131.900 86.873 L 131.924 86.927 L 132.029 87.108 L 132.063 87.155 L 132.203 87.310 L 132.246 87.350 L 132.400 87.461 L 132.408 87.457 L 132.400 87.461 L 132.400 89.320 L 132.423 89.343 L 132.400 89.320 L 131.000 89.320 L 130.895 89.329 L 130.841 89.340 L 130.766 89.363 L 130.715 89.384 L 130.646 89.421 L 130.600 89.451 L 130.540 89.501 L 130.059 89.979 L 129.991 90.060 L 129.960 90.106 L 129.924 90.175 L 129.903 90.226 L 129.880 90.301 L 129.869 90.355 L 129.860 90.460 L 129.860 92.919 L 129.868 92.923 L 129.860 92.919 L 129.706 93.030 L 129.663 93.070 L 129.523 93.225 L 129.489 93.272 L 129.384 93.453 L 129.360 93.507 L 129.328 93.708 L 129.322 93.766 L 129.311 94.027 L 129.421 94.013 L 129.448 94.245 L 129.523 94.467 L 129.627 94.648 L 129.782 94.823 L 129.969 94.963 L 130.020 94.988 L 130.020 101.040 L 130.028 101.130 L 130.065 101.250 L 130.115 101.338 L 130.172 101.408 L 134.935 106.171 L 134.903 106.280 L 134.881 106.487 L 134.881 106.513 L 134.908 106.745 L 134.983 106.967 L 135.102 107.168 L 135.242 107.323 L 135.429 107.463 L 135.642 107.561 L 135.666 107.568 L 135.895 107.615 L 136.129 107.612 L 136.358 107.561 L 136.571 107.463 L 136.740 107.340 L 136.758 107.323 L 136.913 107.148 L 137.028 106.944 L 137.092 106.745 L 137.119 106.513 L 137.097 106.280 L 137.092 106.255 L 137.017 106.033 L 136.898 105.832 L 136.740 105.660 L 136.571 105.537 L 136.358 105.439 L 136.129 105.388 L 136.105 105.385 L 135.871 105.388 L 135.667 105.431 L 131.060 100.825 L 131.060 94.988 L 131.111 94.963 L 131.280 94.840 L 131.438 94.668 L 131.453 94.648 L 131.568 94.444 L 131.632 94.245 L 131.659 94.013 L 131.659 93.987 L 131.632 93.755 L 131.557 93.533 L 131.453 93.352 L 131.438 93.332 L 131.280 93.160 L 131.111 93.037 L 131.060 93.011 L 131.060 90.675 L 131.215 90.520 L 133.000 90.520 L 133.090 90.512 L 133.188 90.484 L 133.279 90.438 L 133.359 90.376 L 133.456 90.279 L 133.518 90.199 L 133.564 90.108 L 133.592 90.010 L 133.600 89.920 L 133.600 87.368 L 133.651 87.343 L 133.838 87.203 L 133.993 87.028 L 134.108 86.824 L 134.172 86.625 L 134.199 86.393 L 134.177 86.160 L 134.145 86.051 L 139.175 81.020 L 150.500 81.020 L 150.590 81.012 L 150.688 80.984 L 150.798 80.925 L 150.876 80.859 L 150.938 80.779 L 150.984 80.688 L 151.012 80.590 L 151.019 80.512 L 151.020 77.709 L 151.058 77.659 L 151.095 77.590 L 151.132 77.470 L 151.140 77.380 L 151.140 76.488 L 151.191 76.463 L 151.378 76.323 L 151.533 76.148 L 151.648 75.944 L 151.717 75.720 L 151.739 75.487 L 151.712 75.255 L 151.637 75.033 L 151.518 74.832 L 151.360 74.660 L 151.191 74.537 L 150.978 74.439 L 150.954 74.432 L 150.749 74.388 L 150.515 74.385 L 150.490 74.388 L 150.262 74.439 L 150.049 74.537 L 149.880 74.660 L 149.722 74.832 L 149.707 74.852 L 149.592 75.056 L 149.522 75.280 L 149.501 75.487 L 149.522 75.720 L 149.592 75.944 L 149.707 76.148 L 149.862 76.323 L 150.049 76.463 L 150.100 76.488 L 150.100 77.171 L 150.062 77.221 L 150.016 77.312 L 149.988 77.410 L 149.980 77.500 L 149.980 79.980 L 138.960 79.980 L 138.870 79.988 L 138.772 80.016 L 138.681 80.062 L 138.592 80.132 L 133.413 85.311 L 133.185 85.265 L 132.951 85.268 L 132.722 85.319 L 132.531 85.404 L 132.340 85.540 L 132.322 85.557 L 132.167 85.732 L 132.063 85.913 L 131.988 86.135 L 131.961 86.367 L 131.982 86.600 L 132.052 86.824 L 132.167 87.028 L 132.322 87.203 L 132.509 87.343 L 132.560 87.368 L 132.560 89.480 L 131.000 89.480 L 130.887 89.493 L 130.812 89.516 L 130.721 89.562 L 130.641 89.624 L 130.172 90.092 L 130.115 90.162 L 130.056 90.272 L 130.028 90.370 L 130.020 90.460 L 130.020 93.012 L 129.969 93.037 L 129.800 93.160 L 129.782 93.177 L 129.627 93.352 L 129.523 93.533 L 129.448 93.755 L 129.442 93.780 L 129.421 94.013 L 129.311 94.027 L 129.328 94.292 L 129.359 94.489 L 129.384 94.547 L 129.489 94.728 L 129.523 94.775 L 129.663 94.930 L 129.706 94.970 L 129.860 95.081 L 129.868 95.077 L 129.860 95.081 L 129.860 101.040 L 129.869 101.145 L 129.880 101.199 L 129.903 101.274 L 129.924 101.325 L 129.960 101.394 L 129.991 101.440 L 130.059 101.521 L 134.754 106.215 L 134.762 106.212 L 134.754 106.215 L 134.743 106.263 L 134.722 106.471 L 134.722 106.529 L 134.743 106.737 L 134.756 106.794 L 134.820 106.993 L 134.844 107.047 L 134.948 107.228 L 134.983 107.275 L 135.123 107.430 L 135.166 107.470 L 135.335 107.593 L 135.386 107.622 L 135.577 107.707 L 135.633 107.725 L 135.837 107.768 L 135.895 107.774 L 136.105 107.774 L 136.163 107.768 L 136.367 107.725 L 136.423 107.707 L 136.614 107.622 L 136.665 107.593 L 136.834 107.470 L 136.877 107.430 L 137.017 107.275 L 137.051 107.228 L 137.156 107.047 L 137.180 106.993 L 137.244 106.794 L 137.257 106.737 L 137.278 106.529 L 137.278 106.471 L 137.257 106.263 L 137.244 106.206 L 137.180 106.007 L 137.156 105.953 L 137.051 105.772 L 137.017 105.725 L 136.877 105.569 L 136.834 105.530 L 136.665 105.407 L 136.614 105.378 L 136.423 105.293 L 136.367 105.275 L 136.163 105.232 L 136.105 105.225 L 135.895 105.225 L 135.837 105.232 L 135.718 105.257 L 135.715 105.267 L 135.718 105.257 L 131.220 100.758 L 131.214 100.761 L 131.220 100.758 L 131.220 95.081 L 131.212 95.077 L 131.220 95.081 L 131.374 94.970 L 131.417 94.930 L 131.557 94.775 L 131.591 94.728 L 131.696 94.547 L 131.720 94.493 L 131.770 94.339 L 131.770 93.661 L 131.720 93.507 L 131.696 93.453 L 131.591 93.272 L 131.557 93.225 L 131.417 93.070 L 131.374 93.030 L 131.220 92.919 L 131.212 92.923 L 131.220 92.919 L 131.220 90.742 L 131.214 90.739 L 131.220 90.742 L 131.282 90.680 L 131.279 90.674 L 131.282 90.680 L 133.000 90.680 L 133.105 90.671 L 133.159 90.660 L 133.234 90.637 L 133.285 90.616 L 133.354 90.579 L 133.400 90.549 L 133.481 90.481 L 133.561 90.401 L 133.629 90.320 L 133.659 90.274 L 133.696 90.205 L 133.717 90.154 L 133.740 90.079 L 133.751 90.025 L 133.760 89.920 L 133.760 87.461 L 133.752 87.457 L 133.760 87.461 L 133.914 87.350 L 133.957 87.310 L 134.097 87.155 L 134.131 87.108 L 134.236 86.927 L 134.260 86.873 L 134.310 86.719 L 134.311 86.094 L 134.308 86.093 L 134.311 86.094 L 134.327 86.060 L 134.470 85.833 L 134.629 85.630 L 134.806 85.446 L 135.007 85.278 L 134.967 85.308 L 134.774 85.476 L 134.601 85.662 L 134.457 85.851 L 134.236 86.072 L 134.224 86.069 L 134.236 86.072 L 134.257 86.151 L 134.279 86.359 L 134.279 86.401 L 134.257 86.609 L 134.248 86.650 L 134.184 86.849 L 134.167 86.887 L 134.062 87.068 L 134.038 87.102 L 133.898 87.257 L 133.867 87.285 L 133.698 87.408 L 133.680 87.418 L 133.671 87.413 L 133.680 87.418 L 133.680 89.920 L 133.671 90.018 L 133.664 90.056 L 133.641 90.131 L 133.626 90.167 L 133.589 90.236 L 133.567 90.269 L 133.504 90.344 L 133.424 90.424 L 133.349 90.487 L 133.316 90.509 L 133.247 90.546 L 133.211 90.561 L 133.136 90.584 L 133.098 90.591 L 133.000 90.600 L 131.249 90.600 L 131.246 90.594 L 131.249 90.600 L 131.140 90.709 L 131.134 90.706 L 131.140 90.709 L 131.140 92.962 L 131.131 92.966 L 131.140 92.962 L 131.158 92.972 L 131.327 93.095 L 131.358 93.123 L 131.498 93.278 L 131.522 93.312 L 131.627 93.493 L 131.644 93.531 L 131.708 93.730 L 131.717 93.771 L 131.739 93.979 L 131.739 94.021 L 131.717 94.229 L 131.708 94.270 L 131.644 94.469 L 131.627 94.507 L 131.522 94.688 L 131.498 94.722 L 131.358 94.877 L 131.327 94.905 L 131.158 95.028 L 131.140 95.038 L 131.131 95.034 L 131.140 95.038 L 131.140 100.791 L 131.134 100.794 L 131.140 100.791 L 135.693 105.344 L 135.690 105.354 L 135.693 105.344 L 135.854 105.310 L 135.895 105.305 L 136.105 105.305 L 136.146 105.310 L 136.351 105.353 L 136.390 105.366 L 136.581 105.451 L 136.618 105.472 L 136.787 105.595 L 136.818 105.623 L 136.958 105.778 L 136.982 105.812 L 137.087 105.993 L 137.104 106.031 L 137.168 106.230 L 137.177 106.271 L 137.199 106.479 L 137.199 106.521 L 137.177 106.729 L 137.168 106.770 L 137.104 106.969 L 137.087 107.007 L 136.982 107.188 L 136.958 107.222 L 136.818 107.377 L 136.787 107.405 L 136.618 107.528 L 136.581 107.549 L 136.390 107.634 L 136.351 107.647 L 136.146 107.690 L 136.105 107.695 L 135.895 107.695 L 135.854 107.690 L 135.649 107.647 L 135.610 107.634 L 135.419 107.549 L 135.382 107.528 L 135.213 107.405 L 135.182 107.377 L 135.042 107.222 L 135.018 107.188 L 134.913 107.007 L 134.896 106.969 L 134.832 106.770 L 134.823 106.729 L 134.801 106.521 L 134.801 106.479 L 134.823 106.271 L 134.844 106.192 L 134.853 106.189 L 134.844 106.192 L 130.116 101.464 L 130.053 101.389 L 130.031 101.356 L 129.994 101.287 L 129.979 101.251 L 129.956 101.176 L 129.949 101.138 L 129.940 101.040 L 129.940 95.038 L 129.949 95.034 L 129.940 95.038 L 129.922 95.028 L 129.753 94.905 L 129.722 94.877 L 129.582 94.722 L 129.558 94.688 L 129.453 94.507 L 129.436 94.469 L 129.372 94.270 L 129.363 94.229 L 129.341 94.021 L 129.341 93.979 L 129.363 93.771 L 129.372 93.730 L 129.436 93.531 L 129.453 93.493 L 129.558 93.312 L 129.582 93.278 L 129.722 93.123 L 129.753 93.095 L 129.922 92.972 L 129.940 92.962 L 129.949 92.966 L 129.940 92.962 L 129.940 90.460 L 129.949 90.362 L 129.956 90.324 L 129.979 90.249 L 129.994 90.213 L 130.031 90.143 L 130.053 90.111 L 130.116 90.036 L 130.590 89.563 L 130.651 89.513 L 130.683 89.491 L 130.753 89.454 L 130.789 89.439 L 130.864 89.416 L 130.902 89.409 L 131.000 89.400 L 132.480 89.400 L 132.503 89.423 L 132.480 89.400 L 132.480 87.418 L 132.489 87.413 L 132.480 87.418 L 132.462 87.408 L 132.293 87.285 L 132.262 87.257 L 132.122 87.102 L 132.098 87.068 L 131.993 86.887 L 131.976 86.849 L 131.912 86.650 L 131.903 86.609 L 131.881 86.401 L 131.881 86.359 L 131.903 86.151 L 131.912 86.110 L 131.976 85.911 L 131.993 85.873 L 132.098 85.692 L 132.122 85.658 L 132.262 85.503 L 132.293 85.475 L 132.462 85.352 L 132.499 85.331 L 132.690 85.246 L 132.729 85.233 L 132.934 85.190 L 132.975 85.185 L 133.185 85.185 L 133.226 85.190 L 133.387 85.224 L 133.390 85.234 L 133.387 85.224 L 138.536 80.076 L 138.611 80.013 L 138.643 79.991 L 138.713 79.954 L 138.749 79.939 L 138.824 79.916 L 138.862 79.909 L 138.960 79.900 L 149.900 79.900 L 149.923 79.923 L 149.900 79.900 L 149.900 77.500 L 149.909 77.402 L 149.916 77.364 L 149.939 77.289 L 149.954 77.253 L 149.991 77.183 L 150.013 77.150 L 150.023 77.143 L 150.020 76.538 L 150.029 76.533 L 150.020 76.538 L 150.002 76.528 L 149.833 76.405 L 149.802 76.377 L 149.662 76.222 L 149.638 76.188 L 149.533 76.007 L 149.516 75.969 L 149.452 75.770 L 149.443 75.729 L 149.421 75.521 L 149.421 75.479 L 149.443 75.271 L 149.452 75.230 L 149.516 75.031 L 149.533 74.993 L 149.638 74.812 L 149.662 74.778 L 149.802 74.623 L 149.833 74.595 L 150.002 74.472 L 150.039 74.451 L 150.230 74.366 L 150.269 74.353 L 150.474 74.310 L 150.515 74.305 L 150.725 74.305 L 150.766 74.310 L 150.971 74.353 L 151.010 74.366 L 151.201 74.451 L 151.238 74.472 L 151.407 74.595 L 151.438 74.623 L 151.578 74.778 L 151.602 74.812 L 151.707 74.993 L 151.724 75.031 L 151.788 75.230 L 151.797 75.271 L 151.819 75.479 L 151.819 75.521 L 151.797 75.729 L 151.788 75.770 L 151.724 75.969 L 151.707 76.007 L 151.602 76.188 L 151.578 76.222 L 151.438 76.377 L 151.407 76.405 L 151.238 76.528 L 151.220 76.538 L 151.212 76.534 L 151.220 76.538 L 151.219 77.400 L 151.211 77.478 L 151.204 77.516 L 151.181 77.591 L 151.166 77.627 L 151.129 77.696 L 151.107 77.730 L 151.097 77.737 L 151.100 77.738 L 151.099 80.520 L 151.091 80.598 L 151.084 80.636 L 151.061 80.711 L 151.046 80.747 L 151.009 80.816 L 150.987 80.849 L 150.937 80.910 L 150.910 80.937 L 150.849 80.987 L 150.816 81.009 L 150.747 81.046 L 150.711 81.061 L 150.636 81.084 L 150.598 81.091 L 150.500 81.100 L 139.209 81.100 L 139.206 81.094 L 139.209 81.100 L 135.083 85.225 L 135.007 85.278 L 135.053 85.343 L 135.128 85.291 L 135.230 85.246 L 135.269 85.233 L 135.474 85.190 L 135.515 85.185 L 135.725 85.185 L 135.766 85.190 L 135.971 85.233 L 136.010 85.246 L 136.201 85.331 L 136.238 85.352 L 136.407 85.475 L 136.438 85.503 L 136.578 85.658 L 136.602 85.692 L 136.707 85.873 L 136.724 85.911 L 136.788 86.110 L 136.797 86.151 L 136.819 86.359 L 136.819 86.401 L 136.797 86.609 L 136.776 86.688 L 136.767 86.691 L 136.776 86.688 L 136.988 86.900 L 136.986 86.906 L 136.988 86.900 L 141.968 86.900 L 141.974 86.910 L 141.968 86.900 L 142.017 86.813 L 142.042 86.778 L 142.182 86.623 L 142.213 86.595 L 142.382 86.472 L 142.419 86.451 L 142.610 86.366 L 142.649 86.353 L 142.854 86.310 L 142.895 86.305 L 143.105 86.305 L 143.146 86.310 L 143.351 86.353 L 143.390 86.366 L 143.581 86.451 L 143.618 86.472 L 143.787 86.595 L 143.818 86.623 L 143.958 86.778 L 143.982 86.812 L 144.087 86.993 L 144.104 87.031 L 144.168 87.230 L 144.177 87.271 L 144.199 87.479 L 144.199 87.521 L 144.177 87.729 L 144.168 87.770 L 144.104 87.969 L 144.087 88.007 L 143.982 88.188 L 143.958 88.222 L 143.818 88.377 L 143.787 88.405 L 143.618 88.528 L 143.581 88.549 L 143.390 88.634 L 143.351 88.647 L 143.146 88.690 L 143.105 88.694 L 142.895 88.694 L 142.854 88.690 L 142.649 88.647 L 142.610 88.634 L 142.419 88.549 L 142.382 88.528 L 142.213 88.405 L 142.182 88.377 L 142.042 88.222 L 142.017 88.187 L 141.968 88.100 L 141.974 88.090 L 141.968 88.100 L 136.740 88.100 L 136.642 88.091 L 136.604 88.084 L 136.529 88.061 L 136.493 88.046 L 136.423 88.009 L 136.391 87.987 L 136.330 87.937 L 135.927 87.536 L 135.930 87.526 L 135.927 87.536 L 135.766 87.570 L 135.725 87.575 L 135.515 87.575 L 135.474 87.570 L 135.269 87.527 L 135.230 87.514 L 135.039 87.429 L 135.002 87.408 L 134.833 87.285 L 134.802 87.257 L 134.662 87.102 L 134.638 87.068 L 134.533 86.887 L 134.516 86.849 L 134.452 86.650 L 134.443 86.609 L 134.421 86.401 L 134.421 86.359 L 134.443 86.151 L 134.452 86.110 L 134.522 85.898" fill="none" stroke="#000000" stroke-width="0.2"/>
  <path d="M 140.501 99.013 L 140.528 99.245 L 140.592 99.444 L 140.603 99.467 L 140.722 99.668 L 140.880 99.840 L 141.071 99.976 L 141.286 100.068 L 141.490 100.112 L 141.515 100.115 L 141.749 100.112 L 141.954 100.068 L 142.169 99.976 L 142.360 99.840 L 142.378 99.823 L 142.518 99.668 L 142.606 99.520 L 146.014 99.520 L 146.102 99.668 L 146.242 99.823 L 146.260 99.840 L 146.451 99.976 L 146.666 100.068 L 146.871 100.112 L 146.895 100.115 L 147.129 100.112 L 147.334 100.068 L 147.549 99.976 L 147.740 99.840 L 147.898 99.668 L 147.913 99.648 L 148.028 99.444 L 148.092 99.245 L 148.119 99.013 L 148.097 98.780 L 148.028 98.556 L 147.913 98.352 L 147.898 98.332 L 147.740 98.160 L 147.549 98.024 L 147.358 97.939 L 147.129 97.888 L 147.105 97.885 L 146.871 97.888 L 146.642 97.939 L 146.451 98.024 L 146.260 98.160 L 146.242 98.177 L 146.102 98.332 L 146.014 98.480 L 142.606 98.480 L 142.518 98.332 L 142.378 98.177 L 142.360 98.160 L 142.169 98.024 L 141.978 97.939 L 141.749 97.888 L 141.725 97.885 L 141.490 97.888 L 141.262 97.939 L 141.071 98.024 L 140.880 98.160 L 140.862 98.177 L 140.707 98.352 L 140.592 98.556 L 140.523 98.780 L 140.501 99.013 L 140.421 99.021 L 140.443 99.229 L 140.452 99.270 L 140.516 99.469 L 140.533 99.507 L 140.638 99.688 L 140.662 99.722 L 140.802 99.877 L 140.833 99.905 L 141.002 100.028 L 141.039 100.049 L 141.230 100.134 L 141.269 100.147 L 141.474 100.190 L 141.515 100.194 L 141.725 100.194 L 141.766 100.190 L 141.971 100.147 L 142.010 100.134 L 142.201 100.049 L 142.238 100.028 L 142.407 99.905 L 142.438 99.877 L 142.578 99.722 L 142.603 99.687 L 142.652 99.600 L 142.646 99.590 L 142.652 99.600 L 145.968 99.600 L 145.974 99.590 L 145.968 99.600 L 146.017 99.687 L 146.042 99.722 L 146.182 99.877 L 146.213 99.905 L 146.382 100.028 L 146.419 100.049 L 146.610 100.134 L 146.649 100.147 L 146.854 100.190 L 146.895 100.194 L 147.105 100.194 L 147.146 100.190 L 147.351 100.147 L 147.390 100.134 L 147.581 100.049 L 147.618 100.028 L 147.787 99.905 L 147.818 99.877 L 147.958 99.722 L 147.982 99.688 L 148.087 99.507 L 148.104 99.469 L 148.168 99.270 L 148.177 99.229 L 148.199 99.021 L 148.199 98.979 L 148.177 98.771 L 148.168 98.730 L 148.104 98.531 L 148.087 98.493 L 147.982 98.312 L 147.958 98.278 L 147.818 98.123 L 147.787 98.095 L 147.618 97.972 L 147.581 97.951 L 147.390 97.866 L 147.351 97.853 L 147.146 97.810 L 147.105 97.805 L 146.895 97.805 L 146.854 97.810 L 146.649 97.853 L 146.610 97.866 L 146.419 97.951 L 146.382 97.972 L 146.213 98.095 L 146.182 98.123 L 146.042 98.278 L 146.017 98.313 L 145.968 98.400 L 145.974 98.410 L 145.968 98.400 L 142.652 98.400 L 142.646 98.410 L 142.652 98.400 L 142.603 98.313 L 142.578 98.278 L 142.438 98.123 L 142.407 98.095 L 142.238 97.972 L 142.201 97.951 L 142.010 97.866 L 141.971 97.853 L 141.766 97.810 L 141.725 97.805 L 141.515 97.805 L 141.474 97.810 L 141.269 97.853 L 141.230 97.866 L 141.039 97.951 L 141.002 97.972 L 140.833 98.095 L 140.802 98.123 L 140.662 98.278 L 140.638 98.312 L 140.533 98.493 L 140.516 98.531 L 140.452 98.730 L 140.443 98.771 L 140.421 98.979 L 140.421 99.021 L 140.342 99.029 L 140.363 99.237 L 140.376 99.294 L 140.440 99.493 L 140.464 99.547 L 140.569 99.728 L 140.603 99.775 L 140.743 99.930 L 140.786 99.970 L 140.955 100.093 L 141.006 100.122 L 141.197 100.207 L 141.253 100.225 L 141.457 100.268 L 141.515 100.274 L 141.725 100.274 L 141.783 100.268 L 141.987 100.225 L 142.043 100.207 L 142.234 100.122 L 142.285 100.093 L 142.454 99.970 L 142.497 99.930 L 142.637 99.775 L 142.672 99.726 L 142.699 99.680 L 142.693 99.670 L 142.699 99.680 L 145.921 99.680 L 145.927 99.670 L 145.921 99.680 L 145.948 99.726 L 145.983 99.775 L 146.123 99.930 L 146.166 99.970 L 146.335 100.093 L 146.386 100.122 L 146.521 100.182 L 146.634 100.203 L 146.897 100.227 L 147.159 100.224 L 147.427 100.193 L 147.479 100.182 L 147.614 100.122 L 147.665 100.093 L 147.834 99.970 L 147.877 99.930 L 148.017 99.775 L 148.051 99.728 L 148.156 99.547 L 148.180 99.493 L 148.244 99.294 L 148.257 99.237 L 148.278 99.029 L 148.278 98.971 L 148.257 98.763 L 148.244 98.706 L 148.180 98.507 L 148.156 98.453 L 148.051 98.272 L 148.017 98.225 L 147.877 98.070 L 147.834 98.030 L 147.665 97.907 L 147.614 97.878 L 147.423 97.793 L 147.367 97.775 L 147.163 97.732 L 147.105 97.726 L 146.895 97.726 L 146.837 97.732 L 146.633 97.775 L 146.577 97.793 L 146.386 97.878 L 146.335 97.907 L 146.166 98.030 L 146.123 98.070 L 145.983 98.225 L 145.948 98.274 L 145.921 98.320 L 145.927 98.330 L 145.921 98.320 L 142.699 98.320 L 142.693 98.330 L 142.699 98.320 L 142.672 98.274 L 142.637 98.225 L 142.497 98.070 L 142.454 98.030 L 142.285 97.907 L 142.234 97.878 L 142.043 97.793 L 141.987 97.775 L 141.783 97.732 L 141.725 97.726 L 141.515 97.726 L 141.457 97.732 L 141.253 97.775 L 141.197 97.793 L 141.006 97.878 L 140.955 97.907 L 140.786 98.030 L 140.743 98.070 L 140.603 98.225 L 140.569 98.272 L 140.464 98.453 L 140.440 98.507 L 140.376 98.706 L 140.363 98.763 L 140.342 98.971 L 140.342 99.029" fill="none" stroke="#000000" stroke-width="0.2"/>
  <path d="M 131.961 94.013 L 131.982 94.220 L 132.052 94.444 L 132.167 94.648 L 132.322 94.823 L 132.340 94.840 L 132.509 94.963 L 132.560 94.988 L 132.561 98.092 L 132.568 98.170 L 132.596 98.268 L 132.642 98.359 L 132.712 98.448 L 132.935 98.671 L 132.903 98.780 L 132.881 99.013 L 132.908 99.245 L 132.972 99.444 L 132.983 99.467 L 133.102 99.668 L 133.260 99.840 L 133.451 99.976 L 133.666 100.068 L 133.870 100.112 L 134.105 100.115 L 134.334 100.068 L 134.549 99.976 L 134.571 99.963 L 134.758 99.823 L 134.913 99.648 L 135.017 99.467 L 135.092 99.245 L 135.119 99.013 L 135.119 98.987 L 135.092 98.755 L 135.017 98.533 L 134.898 98.332 L 134.740 98.160 L 134.549 98.024 L 134.334 97.932 L 134.105 97.885 L 133.895 97.885 L 133.667 97.931 L 133.600 97.865 L 133.600 94.988 L 133.651 94.963 L 133.838 94.823 L 133.993 94.648 L 134.108 94.444 L 134.172 94.245 L 134.199 94.013 L 134.177 93.780 L 134.108 93.556 L 134.097 93.533 L 133.978 93.332 L 133.820 93.160 L 133.651 93.037 L 133.438 92.939 L 133.209 92.888 L 133.185 92.885 L 132.951 92.888 L 132.722 92.939 L 132.531 93.024 L 132.340 93.160 L 132.322 93.177 L 132.167 93.352 L 132.052 93.556 L 131.982 93.780 L 131.961 94.013 L 131.881 94.021 L 131.903 94.229 L 131.912 94.270 L 131.976 94.469 L 131.993 94.507 L 132.098 94.688 L 132.122 94.722 L 132.262 94.877 L 132.293 94.905 L 132.462 95.028 L 132.480 95.038 L 132.489 95.033 L 132.480 95.038 L 132.481 98.100 L 132.489 98.178 L 132.496 98.216 L 132.519 98.291 L 132.534 98.327 L 132.571 98.396 L 132.593 98.429 L 132.656 98.504 L 132.844 98.692 L 132.856 98.689 L 132.844 98.692 L 132.823 98.771 L 132.801 98.979 L 132.801 99.021 L 132.823 99.229 L 132.832 99.270 L 132.896 99.469 L 132.913 99.507 L 133.018 99.688 L 133.042 99.722 L 133.182 99.877 L 133.213 99.905 L 133.382 100.028 L 133.419 100.049 L 133.610 100.134 L 133.649 100.147 L 133.854 100.190 L 133.895 100.194 L 134.105 100.194 L 134.146 100.190 L 134.351 100.147 L 134.390 100.134 L 134.581 100.049 L 134.618 100.028 L 134.787 99.905 L 134.818 99.877 L 134.958 99.722 L 134.982 99.688 L 135.087 99.507 L 135.104 99.469 L 135.168 99.270 L 135.177 99.229 L 135.199 99.021 L 135.199 98.979 L 135.177 98.771 L 135.168 98.730 L 135.104 98.531 L 135.087 98.493 L 134.982 98.312 L 134.958 98.278 L 134.818 98.123 L 134.787 98.095 L 134.618 97.972 L 134.581 97.951 L 134.390 97.866 L 134.351 97.853 L 134.146 97.810 L 134.105 97.805 L 133.895 97.805 L 133.854 97.810 L 133.693 97.844 L 133.690 97.854 L 133.693 97.844 L 133.680 97.831 L 133.674 97.834 L 133.680 97.831 L 133.680 95.038 L 133.671 95.034 L 133.680 95.038 L 133.698 95.028 L 133.867 94.905 L 133.898 94.877 L 134.038 94.722 L 134.062 94.688 L 134.167 94.507 L 134.184 94.469 L 134.248 94.270 L 134.257 94.229 L 134.279 94.021 L 134.279 93.979 L 134.257 93.771 L 134.248 93.730 L 134.184 93.531 L 134.167 93.493 L 134.062 93.312 L 134.038 93.278 L 133.898 93.123 L 133.867 93.095 L 133.698 92.972 L 133.661 92.951 L 133.470 92.866 L 133.431 92.853 L 133.226 92.810 L 133.185 92.805 L 132.975 92.805 L 132.934 92.810 L 132.729 92.853 L 132.690 92.866 L 132.499 92.951 L 132.462 92.972 L 132.293 93.095 L 132.262 93.123 L 132.122 93.278 L 132.098 93.312 L 131.993 93.493 L 131.976 93.531 L 131.912 93.730 L 131.903 93.771 L 131.881 93.979 L 131.881 94.021 L 131.850 94.028 L 131.850 93.661 L 131.900 93.507 L 131.924 93.453 L 132.029 93.272 L 132.063 93.225 L 132.203 93.070 L 132.246 93.030 L 132.415 92.907 L 132.466 92.878 L 132.657 92.793 L 132.713 92.775 L 132.917 92.732 L 132.975 92.725 L 133.185 92.725 L 133.243 92.732 L 133.447 92.775 L 133.503 92.793 L 133.694 92.878 L 133.745 92.907 L 133.914 93.030 L 133.957 93.070 L 134.097 93.225 L 134.131 93.272 L 134.236 93.453 L 134.260 93.507 L 134.310 93.661 L 134.310 94.339 L 134.260 94.493 L 134.236 94.547 L 134.131 94.728 L 134.097 94.775 L 133.957 94.930 L 133.914 94.970 L 133.760 95.081 L 133.752 95.077 L 133.760 95.081 L 133.760 97.748 L 133.732 97.781 L 133.760 97.748 L 133.837 97.732 L 133.895 97.726 L 134.105 97.726 L 134.163 97.732 L 134.367 97.775 L 134.423 97.793 L 134.614 97.878 L 134.665 97.907 L 134.834 98.030 L 134.877 98.070 L 135.017 98.225 L 135.051 98.272 L 135.156 98.453 L 135.180 98.507 L 135.244 98.706 L 135.257 98.763 L 135.278 98.971 L 135.278 99.029 L 135.257 99.237 L 135.244 99.294 L 135.180 99.493 L 135.156 99.547 L 135.051 99.728 L 135.017 99.775 L 134.877 99.930 L 134.834 99.970 L 134.665 100.093 L 134.614 100.122 L 134.423 100.207 L 134.367 100.225 L 134.163 100.268 L 134.105 100.274 L 133.895 100.274 L 133.837 100.268 L 133.633 100.225 L 133.577 100.207 L 133.386 100.122 L 133.335 100.093 L 133.166 99.970 L 133.123 99.930 L 132.983 99.775 L 132.948 99.728 L 132.844 99.547 L 132.820 99.493 L 132.756 99.294 L 132.743 99.237 L 132.722 99.029 L 132.722 98.971 L 132.743 98.763 L 132.754 98.715 L 132.762 98.712 L 132.754 98.715 L 132.599 98.561 L 132.531 98.480 L 132.500 98.434 L 132.464 98.365 L 132.443 98.314 L 132.420 98.239 L 132.409 98.185 L 132.401 98.107 L 132.400 95.081 L 132.408 95.077 L 132.400 95.081 L 132.246 94.970 L 132.203 94.930 L 132.063 94.775 L 132.029 94.728 L 131.924 94.547 L 131.900 94.493 L 131.850 94.339 L 131.850 94.028" fill="none" stroke="#000000" stroke-width="0.2"/>
  <path d="M 110.330 107.250 L 110.330 101.550 L 110.339 101.504 L 110.365 101.465 L 110.404 101.439 L 110.450 101.430 L 116.550 101.430 L 116.596 101.439 L 116.635 101.465 L 116.661 101.504 L 116.670 101.550 L 116.670 107.250 L 116.661 107.296 L 116.635 107.335 L 116.596 107.361 L 116.550 107.370 L 110.450 107.370 L 110.404 107.361 L 110.365 107.335 L 110.339 107.296 L 110.330 107.250 L 110.250 107.250 L 110.254 107.289 L 110.265 107.327 L 110.284 107.361 L 110.309 107.391 L 110.339 107.416 L 110.373 107.435 L 110.411 107.446 L 110.450 107.450 L 116.550 107.450 L 116.589 107.446 L 116.627 107.435 L 116.661 107.416 L 116.691 107.391 L 116.716 107.361 L 116.735 107.327 L 116.746 107.289 L 116.750 107.250 L 116.750 101.550 L 116.746 101.511 L 116.735 101.473 L 116.716 101.439 L 116.691 101.409 L 116.661 101.384 L 116.627 101.365 L 116.589 101.354 L 116.550 101.350 L 110.450 101.350 L 110.411 101.354 L 110.373 101.365 L 110.339 101.384 L 110.309 101.409 L 110.284 101.439 L 110.265 101.473 L 110.254 101.511 L 110.250 101.550 L 110.250 107.250 L 110.170 107.250 L 110.175 107.305 L 110.191 107.357 L 110.217 107.406 L 110.252 107.448 L 110.294 107.483 L 110.343 107.509 L 110.395 107.525 L 110.450 107.530 L 116.550 107.530 L 116.605 107.525 L 116.657 107.509 L 116.706 107.483 L 116.748 107.448 L 116.783 107.406 L 116.809 107.357 L 116.825 107.305 L 116.830 107.250 L 116.830 101.550 L 116.825 101.495 L 116.809 101.443 L 116.783 101.394 L 116.748 101.352 L 116.706 101.317 L 116.657 101.291 L 116.605 101.275 L 116.550 101.270 L 110.450 101.270 L 110.395 101.275 L 110.343 101.291 L 110.294 101.317 L 110.252 101.352 L 110.217 101.394 L 110.191 101.443 L 110.175 101.495 L 110.170 101.550 L 110.170 107.250" fill="none" stroke="#000000" stroke-width="0.2"/>
</svg>
