<?xml version="1.0" encoding="UTF-8"?>
<svg xmlns="http://www.w3.org/2000/svg" width="85.30mm" height="77.89mm" viewBox="82.63 57.52 85.30 77.89">
  <path d="M 87.631 82.588 L 87.694 84.162 L 87.853 85.671 L 88.110 87.191 L 88.465 88.713 L 88.896 90.167 L 89.417 91.617 L 90.028 93.058 L 90.698 94.427 L 91.450 95.780 L 92.282 97.110 L 93.158 98.365 L 94.106 99.590 L 95.112 100.768 L 96.183 101.904 L 97.987 103.681 L 99.826 105.414 L 100.673 106.175 L 102.756 108.046 L 103.603 108.807 L 111.230 115.475 L 112.057 116.235 L 114.119 118.129 L 114.946 118.889 L 116.745 120.643 L 118.497 122.442 L 120.190 124.292 L 121.816 126.203 L 123.367 128.181 L 124.840 130.244 L 124.892 130.304 L 124.955 130.352 L 125.026 130.386 L 125.102 130.407 L 125.181 130.411 L 125.260 130.400 L 125.334 130.374 L 125.402 130.334 L 125.461 130.281 L 125.746 129.968 L 126.048 129.621 L 126.642 128.901 L 127.243 128.138 L 128.477 126.536 L 129.101 125.740 L 129.729 124.971 L 130.042 124.605 L 130.355 124.252 L 132.003 122.494 L 133.705 120.788 L 135.452 119.125 L 137.235 117.497 L 138.003 116.823 L 140.109 114.977 L 140.877 114.303 L 144.557 111.137 L 145.324 110.462 L 147.426 108.612 L 148.194 107.936 L 149.981 106.294 L 151.731 104.616 L 153.444 102.882 L 155.086 101.111 L 156.684 99.253 L 158.187 97.348 L 159.248 95.808 L 160.201 94.144 L 161.003 92.433 L 161.671 90.660 L 162.193 88.866 L 162.584 87.006 L 162.833 85.091 L 162.929 83.195 L 162.875 81.300 L 162.671 79.452 L 162.507 78.513 L 162.301 77.573 L 162.063 76.678 L 161.779 75.777 L 161.455 74.889 L 161.081 73.999 L 160.681 73.161 L 160.220 72.306 L 159.726 71.488 L 159.188 70.692 L 158.620 69.936 L 157.995 69.188 L 157.364 68.507 L 156.732 67.888 L 156.057 67.290 L 155.341 66.714 L 154.616 66.186 L 153.868 65.693 L 153.099 65.234 L 152.310 64.811 L 151.504 64.424 L 150.698 64.079 L 149.845 63.757 L 148.995 63.478 L 148.135 63.236 L 147.264 63.030 L 146.387 62.862 L 145.519 62.733 L 144.631 62.638 L 143.740 62.582 L 142.847 62.564 L 141.938 62.585 L 141.065 62.643 L 140.161 62.744 L 139.280 62.882 L 138.424 63.055 L 137.540 63.277 L 136.685 63.534 L 135.861 63.826 L 135.014 64.172 L 134.218 64.543 L 133.421 64.963 L 132.643 65.425 L 131.886 65.928 L 131.348 66.318 L 130.824 66.719 L 130.310 67.135 L 129.808 67.565 L 129.318 68.008 L 128.833 68.473 L 128.377 68.936 L 127.919 69.429 L 127.491 69.917 L 127.071 70.427 L 126.666 70.949 L 126.278 71.484 L 125.906 72.032 L 125.553 72.591 L 125.253 73.101 L 124.900 72.502 L 124.525 71.912 L 124.123 71.326 L 123.702 70.754 L 123.263 70.198 L 122.796 69.648 L 122.321 69.124 L 121.829 68.617 L 121.321 68.126 L 120.807 67.663 L 120.257 67.199 L 119.703 66.763 L 119.136 66.345 L 118.565 65.954 L 117.971 65.575 L 117.353 65.209 L 116.735 64.870 L 116.117 64.559 L 115.477 64.262 L 114.815 63.982 L 114.167 63.735 L 113.499 63.504 L 112.822 63.297 L 112.137 63.114 L 111.430 62.951 L 110.731 62.816 L 110.040 62.708 L 109.329 62.622 L 108.613 62.562 L 107.893 62.528 L 107.152 62.521 L 106.267 62.550 L 105.388 62.622 L 104.516 62.735 L 103.653 62.889 L 102.799 63.081 L 101.957 63.312 L 101.127 63.580 L 100.310 63.884 L 99.524 64.216 L 98.722 64.597 L 97.967 64.996 L 97.201 65.443 L 96.469 65.913 L 95.757 66.413 L 95.067 66.943 L 94.401 67.501 L 93.758 68.087 L 93.140 68.698 L 92.549 69.335 L 91.985 69.997 L 91.461 70.668 L 90.956 71.375 L 90.472 72.119 L 90.040 72.853 L 89.632 73.622 L 89.259 74.409 L 88.916 75.232 L 88.617 76.054 L 88.362 76.874 L 88.137 77.745 L 87.962 78.592 L 87.824 79.470 L 87.674 81.030 L 87.631 82.588" fill="none" stroke="#000000" stroke-width="0.2"/>
</svg>
