<?xml version="1.0" encoding="UTF-8"?>
<svg xmlns="http://www.w3.org/2000/svg" width="32.62mm" height="41.00mm" viewBox="123.00 70.50 32.62 41.00">
  <circle cx="136.000" cy="106.500" r="0.400" fill="none" stroke="#000000" stroke-width="0.1"/>
  <circle cx="141.000" cy="106.500" r="0.400" fill="none" stroke="#000000" stroke-width="0.1"/>
  <circle cx="134.000" cy="99.000" r="0.400" fill="none" stroke="#000000" stroke-width="0.1"/>
  <circle cx="128.000" cy="94.000" r="0.400" fill="none" stroke="#000000" stroke-width="0.1"/>
  <circle cx="130.540" cy="94.000" r="0.400" fill="none" stroke="#000000" stroke-width="0.1"/>
  <circle cx="133.080" cy="94.000" r="0.400" fill="none" stroke="#000000" stroke-width="0.1"/>
  <circle cx="135.620" cy="94.000" r="0.400" fill="none" stroke="#000000" stroke-width="0.1"/>
  <circle cx="141.620" cy="99.000" r="0.400" fill="none" stroke="#000000" stroke-width="0.1"/>
  <circle cx="148.000" cy="87.500" r="0.400" fill="none" stroke="#000000" stroke-width="0.1"/>
  <circle cx="143.000" cy="87.500" r="0.400" fill="none" stroke="#000000" stroke-width="0.1"/>
  <circle cx="135.620" cy="86.380" r="0.400" fill="none" stroke="#000000" stroke-width="0.1"/>
  <circle cx="133.080" cy="86.380" r="0.400" fill="none" stroke="#000000" stroke-width="0.1"/>
  <circle cx="130.540" cy="86.380" r="0.400" fill="none" stroke="#000000" stroke-width="0.1"/>
  <circle cx="128.000" cy="86.380" r="0.400" fill="none" stroke="#000000" stroke-width="0.1"/>
  <circle cx="129.880" cy="75.500" r="0.400" fill="none" stroke="#000000" stroke-width="0.1"/>
  <circle cx="137.500" cy="75.500" r="0.400" fill="none" stroke="#000000" stroke-width="0.1"/>
  <circle cx="143.000" cy="75.500" r="0.400" fill="none" stroke="#000000" stroke-width="0.1"/>
  <circle cx="150.620" cy="75.500" r="0.400" fill="none" stroke="#000000" stroke-width="0.1"/>
  <circle cx="147.000" cy="99.000" r="0.450" fill="none" stroke="#000000" stroke-width="0.1"/>
  <circle cx="147.000" cy="101.540" r="0.450" fill="none" stroke="#000000" stroke-width="0.1"/>
</svg>
